<?xml version="1.0" encoding="UTF-8"?>
<svg version="1.1" xmlns="http://www.w3.org/2000/svg" width="423" height="222">
<path d="M0 0 C139.59 0 279.18 0 423 0 C423 73.26 423 146.52 423 222 C283.41 222 143.82 222 0 222 C0 148.74 0 75.48 0 0 Z " fill="#323332" transform="translate(0,0)"/>
<path d="M0 0 C139.59 0 279.18 0 423 0 C423 73.26 423 146.52 423 222 C283.41 222 143.82 222 0 222 C0 148.74 0 75.48 0 0 Z M19 25 C19 88.00088183 19.58552948 151.00048155 20 214 C145.07 214 270.14 214 399 214 C399.70723526 119.50068169 399.70723526 119.50068169 400 25 C274.27 25 148.54 25 19 25 Z " fill="#FEFEFE" transform="translate(0,0)"/>
<path d="M0 0 C32.01 0 64.02 0 97 0 C97 49.83 97 99.66 97 151 C64.99 151 32.98 151 0 151 C0 101.17 0 51.34 0 0 Z " fill="#FDFDFA" transform="translate(154,62)"/>
<path d="M0 0 C32.01 0 64.02 0 97 0 C97 49.83 97 99.66 97 151 C64.99 151 32.98 151 0 151 C0 101.17 0 51.34 0 0 Z " fill="#FDFDFA" transform="translate(56,62)"/>
<path d="M0 0 C27.39 0 54.78 0 83 0 C83 49.83 83 99.66 83 151 C55.61 151 28.22 151 0 151 C0 101.17 0 51.34 0 0 Z " fill="#FDFDFB" transform="translate(252,62)"/>
<path d="M0 0 C20.46 0 40.92 0 62 0 C62 49.83 62 99.66 62 151 C41.54 151 21.08 151 0 151 C0 101.17 0 51.34 0 0 Z " fill="#FEFEFC" transform="translate(336,62)"/>
<path d="M0 0 C11.22 0 22.44 0 34 0 C34 49.83 34 99.66 34 151 C22.78 151 11.56 151 0 151 C0 101.17 0 51.34 0 0 Z " fill="#FDFDFB" transform="translate(21,62)"/>
<path d="M0 0 C31.35 0 62.7 0 95 0 C95 10.23 95 20.46 95 31 C63.65 31 32.3 31 0 31 C0 20.77 0 10.54 0 0 Z " fill="#FAFAF9" transform="translate(155,28)"/>
<path d="M0 0 C31.35 0 62.7 0 95 0 C95 10.23 95 20.46 95 31 C63.65 31 32.3 31 0 31 C0 20.77 0 10.54 0 0 Z " fill="#FDFDFC" transform="translate(57,28)"/>
<path d="M0 0 C26.73 0 53.46 0 81 0 C81 10.23 81 20.46 81 31 C54.27 31 27.54 31 0 31 C0 20.77 0 10.54 0 0 Z " fill="#F8F8F7" transform="translate(253,28)"/>
<path d="M0 0 C19.8 0 39.6 0 60 0 C60 10.23 60 20.46 60 31 C40.2 31 20.4 31 0 31 C0 20.77 0 10.54 0 0 Z " fill="#FAFAFA" transform="translate(337,28)"/>
<path d="M0 0 C10.56 0 21.12 0 32 0 C32 10.23 32 20.46 32 31 C21.44 31 10.88 31 0 31 C0 20.77 0 10.54 0 0 Z " fill="#FDFEFD" transform="translate(22,28)"/>
<path d="M0 0 C1.92779297 -0.0009668 1.92779297 -0.0009668 3.89453125 -0.00195312 C4.89734131 0.01363647 4.89734131 0.01363647 5.92041016 0.02954102 C7.96208974 0.05849928 10.00117216 0.0501505 12.04296875 0.03710938 C21.93183265 0.1015804 21.93183265 0.1015804 24.37695312 1.89819336 C25.46875 3.49609375 25.46875 3.49609375 25.46875 5.49609375 C25.96375 6.98109375 25.96375 6.98109375 26.46875 8.49609375 C29.93375 8.00109375 29.93375 8.00109375 33.46875 7.49609375 C33.46875 10.65753009 33.27268965 11.94588145 31.46875 14.49609375 C29.15625 15.0703125 29.15625 15.0703125 26.46875 15.18359375 C22.82955511 15.29921617 22.82955511 15.29921617 19.46875 16.49609375 C19.46875 15.83609375 19.46875 15.17609375 19.46875 14.49609375 C18.14875 14.49609375 16.82875 14.49609375 15.46875 14.49609375 C15.46875 15.15609375 15.46875 15.81609375 15.46875 16.49609375 C14.54642578 16.27953125 14.54642578 16.27953125 13.60546875 16.05859375 C12.79722656 15.87296875 11.98898438 15.68734375 11.15625 15.49609375 C10.35574219 15.31046875 9.55523437 15.12484375 8.73046875 14.93359375 C6.36179062 14.40113552 6.36179062 14.40113552 3.46875 14.49609375 C1.13541667 14.49609375 -1.19791667 14.49609375 -3.53125 14.49609375 C-3.53125 13.50609375 -3.53125 12.51609375 -3.53125 11.49609375 C-5.65489481 11.27000038 -5.65489481 11.27000038 -7.15625 12.99609375 C-7.61 13.49109375 -8.06375 13.98609375 -8.53125 14.49609375 C-8.510625 13.40296875 -8.49 12.30984375 -8.46875 11.18359375 C-8.34580548 7.55225184 -8.34580548 7.55225184 -9.53125 4.49609375 C-7.34528166 -0.08375879 -4.78611684 -0.00751507 0 0 Z " fill="#F9FAF8" transform="translate(214.53125,-0.49609375)"/>
<path d="M0 0 C1.50433594 0.01353516 1.50433594 0.01353516 3.0390625 0.02734375 C3.80992187 0.03894531 4.58078125 0.05054687 5.375 0.0625 C4.385 0.3925 3.395 0.7225 2.375 1.0625 C2.375 2.0525 2.375 3.0425 2.375 4.0625 C3.695 4.3925 5.015 4.7225 6.375 5.0625 C6.045 6.3825 5.715 7.7025 5.375 9.0625 C4.715 9.0625 4.055 9.0625 3.375 9.0625 C3.230625 9.68125 3.08625 10.3 2.9375 10.9375 C2.375 13.0625 2.375 13.0625 1.375 15.0625 C3.355 14.4025 5.335 13.7425 7.375 13.0625 C7.045 14.7125 6.715 16.3625 6.375 18.0625 C7.344375 17.876875 8.31375 17.69125 9.3125 17.5 C10.8284375 17.2834375 10.8284375 17.2834375 12.375 17.0625 C13.375 18.0625 13.375 18.0625 13.4375 21.625 C13.416875 22.759375 13.39625 23.89375 13.375 25.0625 C8.625 26.1875 8.625 26.1875 6.375 25.0625 C6.045 25.7225 5.715 26.3825 5.375 27.0625 C1.085 27.0625 -3.205 27.0625 -7.625 27.0625 C-7.625 26.4025 -7.625 25.7425 -7.625 25.0625 C-6.635 25.0625 -5.645 25.0625 -4.625 25.0625 C-4.955 23.4125 -5.285 21.7625 -5.625 20.0625 C-6.615 20.3925 -7.605 20.7225 -8.625 21.0625 C-8.01509109 17.50469804 -7.0466319 14.3796411 -5.625 11.0625 C-6.615 10.7325 -7.605 10.4025 -8.625 10.0625 C-8.51137738 8.5824159 -8.38377092 7.10339926 -8.25 5.625 C-8.18039062 4.80128906 -8.11078125 3.97757812 -8.0390625 3.12890625 C-7.90242188 2.44699219 -7.76578125 1.76507813 -7.625 1.0625 C-4.98041621 -0.25979189 -2.94738699 -0.03427194 0 0 Z " fill="#FAFBEA" transform="translate(360.625,89.9375)"/>
<path d="M0 0 C0.66 0 1.32 0 2 0 C2 3.3 2 6.6 2 10 C-2 12 -2 12 -5 12 C-5.185625 13.299375 -5.37125 14.59875 -5.5625 15.9375 C-5.66691406 16.66839844 -5.77132813 17.39929688 -5.87890625 18.15234375 C-5.91886719 18.76207031 -5.95882813 19.37179688 -6 20 C-5.67 20.33 -5.34 20.66 -5 21 C-4.95919217 22.99958364 -4.95745644 25.00045254 -5 27 C-9.33333333 27 -13.66666667 27 -18 27 C-18 24.03 -18 21.06 -18 18 C-16.02 17.67 -14.04 17.34 -12 17 C-12 16.34 -12 15.68 -12 15 C-11.34 15 -10.68 15 -10 15 C-9.67 13.68 -9.34 12.36 -9 11 C-10.07121094 10.93941406 -11.14242188 10.87882812 -12.24609375 10.81640625 C-13.64324391 10.73201463 -15.04037857 10.64736594 -16.4375 10.5625 C-17.14455078 10.52318359 -17.85160156 10.48386719 -18.58007812 10.44335938 C-23.88671875 10.11328125 -23.88671875 10.11328125 -25 9 C-25.125 5.5 -25.125 5.5 -25 2 C-24.67 1.67 -24.34 1.34 -24 1 C-21.7687316 1.03841919 -19.53865011 1.15664623 -17.3125 1.3125 C-16.09175781 1.39113281 -14.87101562 1.46976562 -13.61328125 1.55078125 C-10.15803143 1.98035285 -7.27467377 2.86408268 -4 4 C-1.7124024 3.72359986 -1.7124024 3.72359986 0 3 C0 2.01 0 1.02 0 0 Z " fill="#E2E3CE" transform="translate(302,89)"/>
<path d="M0 0 C1.32 0 2.64 0 4 0 C4.33 3.3 4.66 6.6 5 10 C3.02 10.99 3.02 10.99 1 12 C1 13.32 1 14.64 1 16 C-0.32 16.33 -1.64 16.66 -3 17 C-3 19.97 -3 22.94 -3 26 C-1.35 26 0.3 26 2 26 C1.67 23.03 1.34 20.06 1 17 C1.99 17 2.98 17 4 17 C4 19.97 4 22.94 4 26 C5.65 26 7.3 26 9 26 C9 23.36 9 20.72 9 18 C8.34 17.67 7.68 17.34 7 17 C8.32 17 9.64 17 11 17 C11 19.97 11 22.94 11 26 C11.66 26.33 12.32 26.66 13 27 C6.4 27 -0.2 27 -7 27 C-6.34 26.67 -5.68 26.34 -5 26 C-5 25.01 -5 24.02 -5 23 C-6.32 23 -7.64 23 -9 23 C-9 22.34 -9 21.68 -9 21 C-9.66 21.33 -10.32 21.66 -11 22 C-11.65555119 24.52733235 -11.65555119 24.52733235 -12 27 C-12.66 27 -13.32 27 -14 27 C-14 24.69 -14 22.38 -14 20 C-10.04 19.505 -10.04 19.505 -6 19 C-5.67 16.69 -5.34 14.38 -5 12 C-5.66 12 -6.32 12 -7 12 C-7 11.34 -7 10.68 -7 10 C-8.98 10 -10.96 10 -13 10 C-13 8.68 -13 7.36 -13 6 C-12.01 6 -11.02 6 -10 6 C-10 5.34 -10 4.68 -10 4 C-10.99 3.67 -11.98 3.34 -13 3 C-9.7 3 -6.4 3 -3 3 C-3 4.98 -3 6.96 -3 9 C-2.01 9 -1.02 9 0 9 C0 6.03 0 3.06 0 0 Z " fill="#C1C1AE" transform="translate(109,174)"/>
<path d="M0 0 C0.43828125 0.65484375 0.8765625 1.3096875 1.328125 1.984375 C5.50418229 5.13473401 9.6736335 4.42574638 14.75 4.25 C15.73355469 4.23195313 16.71710938 4.21390625 17.73046875 4.1953125 C20.15463783 4.14824126 22.57682059 4.08250742 25 4 C25.33 4.66 25.66 5.32 26 6 C26.66 6 27.32 6 28 6 C28.66 5.34 29.32 4.68 30 4 C30 6.31 30 8.62 30 11 C28.68 11 27.36 11 26 11 C25.34 11.01160156 24.68 11.02320313 24 11.03515625 C20.50881435 11.0828873 17.35431682 11.11810561 14 10 C14 9.34 14 8.68 14 8 C13.34 8 12.68 8 12 8 C12 8.99 12 9.98 12 11 C9.91835982 11.36398622 7.83459438 11.71583287 5.75 12.0625 C4.58984375 12.25972656 3.4296875 12.45695313 2.234375 12.66015625 C-1 13 -1 13 -5 12 C-4.67 9.03 -4.34 6.06 -4 3 C-2.68 2.67 -1.36 2.34 0 2 C0 1.34 0 0.68 0 0 Z " fill="#FAF9F1" transform="translate(71,122)"/>
<path d="M0 0 C2.3431213 0.25561323 4.67843403 0.59270772 7 1 C7.33 1.66 7.66 2.32 8 3 C9.97888961 3.72693904 11.97954558 4.39816251 14 5 C14 5.99 14 6.98 14 8 C12.68 8.33 11.36 8.66 10 9 C12.475 9.495 12.475 9.495 15 10 C15 8.02 15 6.04 15 4 C16.98 4 18.96 4 21 4 C20.67 4.99 20.34 5.98 20 7 C19.34 6.67 18.68 6.34 18 6 C17.67 7.65 17.34 9.3 17 11 C14.36 11 11.72 11 9 11 C8.67 11.66 8.34 12.32 8 13 C7.236875 12.835 6.47375 12.67 5.6875 12.5 C2.52888574 11.91235084 0.16125151 11.96976534 -3 12.5625 C-6 13 -6 13 -9 12 C-9 12.66 -9 13.32 -9 14 C-10.32 13.67 -11.64 13.34 -13 13 C-13 10.03 -13 7.06 -13 4 C-12.34 4 -11.68 4 -11 4 C-11 5.98 -11 7.96 -11 10 C-10.34 10 -9.68 10 -9 10 C-9 8.02 -9 6.04 -9 4 C-6.36 3.67 -3.72 3.34 -1 3 C-0.67 2.01 -0.34 1.02 0 0 Z " fill="#E2E1C7" transform="translate(101,71)"/>
<path d="M0 0 C0.33 0.66 0.66 1.32 1 2 C1.99 1.34 2.98 0.68 4 0 C6.69921875 0.0234375 6.69921875 0.0234375 9.6875 0.375 C11.17830078 0.54128906 11.17830078 0.54128906 12.69921875 0.7109375 C13.45847656 0.80632812 14.21773437 0.90171875 15 1 C15 1.66 15 2.32 15 3 C15.66 3.33 16.32 3.66 17 4 C16.34 4 15.68 4 15 4 C15 5.65 15 7.3 15 9 C15.99 9.33 16.98 9.66 18 10 C3 10 3 10 -0.0625 9.4375 C-1.031875 9.293125 -2.00125 9.14875 -3 9 C-3.33 9.33 -3.66 9.66 -4 10 C-5.66617115 10.04063832 -7.33388095 10.042721 -9 10 C-9 7.03 -9 4.06 -9 1 C-7.700625 1.020625 -6.40125 1.04125 -5.0625 1.0625 C-3.70834367 1.08399454 -2.35243917 1.07148199 -1 1 C-0.67 0.67 -0.34 0.34 0 0 Z " fill="#DFE0CE" transform="translate(97,140)"/>
<path d="M0 0 C0 2.97 0 5.94 0 9 C0.99 9 1.98 9 3 9 C2.67 6.03 2.34 3.06 2 0 C2.969375 0.165 3.93875 0.33 4.9375 0.5 C9.29487763 1.13396273 13.60630704 1.0896672 18 1 C18 1.66 18 2.32 18 3 C18.99 3.33 19.98 3.66 21 4 C20.01 4 19.02 4 18 4 C18 5.65 18 7.3 18 9 C18.99 9.33 19.98 9.66 21 10 C18.525 9.505 18.525 9.505 16 9 C16 7.35 16 5.7 16 4 C15.34 4 14.68 4 14 4 C14 5.98 14 7.96 14 10 C13.34 10 12.68 10 12 10 C12 8.02 12 6.04 12 4 C11.01 4.495 11.01 4.495 10 5 C9.34444881 7.52733235 9.34444881 7.52733235 9 10 C7.27478537 10.39278091 5.54453752 10.76349151 3.8125 11.125 C2.36810547 11.43824219 2.36810547 11.43824219 0.89453125 11.7578125 C-2.34552253 12.02891012 -4.11546285 11.42381175 -7 10 C-7 7.03 -7 4.06 -7 1 C-3 0 -3 0 0 0 Z " fill="#D7D6BE" transform="translate(283,157)"/>
<path d="M0 0 C0.9075 0.165 1.815 0.33 2.75 0.5 C5.95318704 0.99279801 7.89838781 0.75444621 11 0 C13.83967231 0 16.23735711 0.40267181 19 1 C19 3.31 19 5.62 19 8 C17.68 8.33 16.36 8.66 15 9 C15 9.66 15 10.32 15 11 C11.37 11 7.74 11 4 11 C4 10.34 4 9.68 4 9 C2.35 9 0.7 9 -1 9 C-0.34 6.69 0.32 4.38 1 2 C0.34 1.67 -0.32 1.34 -1 1 C-0.67 0.67 -0.34 0.34 0 0 Z " fill="#F8F7E6" transform="translate(355,141)"/>
<path d="M0 0 C0.66 0 1.32 0 2 0 C2.33 0.66 2.66 1.32 3 2 C3.33 1.34 3.66 0.68 4 0 C7.63 0.33 11.26 0.66 15 1 C15.33 1.99 15.66 2.98 16 4 C16.66 4 17.32 4 18 4 C18.66 3.34 19.32 2.68 20 2 C20 4.64 20 7.28 20 10 C18.02 10.99 18.02 10.99 16 12 C16 11.34 16 10.68 16 10 C14.02 10.99 14.02 10.99 12 12 C12 11.34 12 10.68 12 10 C11.30132812 10.01160156 10.60265625 10.02320313 9.8828125 10.03515625 C8.97273438 10.04417969 8.06265625 10.05320313 7.125 10.0625 C5.76761719 10.07990234 5.76761719 10.07990234 4.3828125 10.09765625 C2 10 2 10 0 9 C0 6.03 0 3.06 0 0 Z " fill="#F5F7E0" transform="translate(284,141)"/>
<path d="M0 0 C0.33 0.33 0.66 0.66 1 1 C3.33294775 1.04241723 5.66702567 1.04092937 8 1 C10.15634036 1 11.92446352 1.4465236 14 2 C13.01 2 12.02 2 11 2 C11 2.66 11 3.32 11 4 C12.32 4 13.64 4 15 4 C15 5.32 15 6.64 15 8 C12.29120665 9.35439668 9.99066732 9.06501451 7 9 C7 7.68 7 6.36 7 5 C6.34 5 5.68 5 5 5 C4.34 6.32 3.68 7.64 3 9 C2.01 9 1.02 9 0 9 C-0.33 9.66 -0.66 10.32 -1 11 C-3.31 10.01 -5.62 9.02 -8 8 C-8 6.02 -8 4.04 -8 2 C-8.66 1.67 -9.32 1.34 -10 1 C-6.60169639 0.22324489 -3.48880949 -0.19382275 0 0 Z " fill="#D8DABA" transform="translate(219,91)"/>
<path d="M0 0 C0.61875 0.165 1.2375 0.33 1.875 0.5 C3.96063386 1.07634644 3.96063386 1.07634644 6 1 C6 1.99 6 2.98 6 4 C9.465 3.505 9.465 3.505 13 3 C13 6.16143634 12.80393965 7.4497877 11 10 C8.6875 10.57421875 8.6875 10.57421875 6 10.6875 C2.36080511 10.80312242 2.36080511 10.80312242 -1 12 C-1 11.34 -1 10.68 -1 10 C-2.32 10 -3.64 10 -5 10 C-5 10.66 -5 11.32 -5 12 C-5.99 11.67 -6.98 11.34 -8 11 C-7.67 8.69 -7.34 6.38 -7 4 C-6.030625 3.71125 -5.06125 3.4225 -4.0625 3.125 C-0.89335797 2.35785318 -0.89335797 2.35785318 0 0 Z " fill="#BAB7B7" transform="translate(235,4)"/>
<path d="M0 0 C0 0.66 0 1.32 0 2 C0.66 2 1.32 2 2 2 C2.33 1.34 2.66 0.68 3 0 C6 0 6 0 8.1875 1.6875 C10.31050198 4.3961577 10.37254569 5.64708882 10 9 C5.3008219 10.01603851 1.6991781 10.01603851 -3 9 C-3.33 8.01 -3.66 7.02 -4 6 C-4.66 7.32 -5.32 8.64 -6 10 C-6.66 10 -7.32 10 -8 10 C-8 7.36 -8 4.72 -8 2 C-8.66 1.67 -9.32 1.34 -10 1 C-2.25 0 -2.25 0 0 0 Z " fill="#D7D9C0" transform="translate(196,72)"/>
<path d="M0 0 C0.33 0.66 0.66 1.32 1 2 C2.175625 2.0928125 2.175625 2.0928125 3.375 2.1875 C4.24125 2.455625 5.1075 2.72375 6 3 C9 8.68965517 9 8.68965517 9 12 C6 14 6 14 3.75 13.75 C0.49125005 12.86125001 -2.7594404 11.95310577 -6 11 C-6 8.69 -6 6.38 -6 4 C-4.35 3.67 -2.7 3.34 -1 3 C-0.67 2.01 -0.34 1.02 0 0 Z " fill="#CCCBB3" transform="translate(367,172)"/>
<path d="M0 0 C1.32 0 2.64 0 4 0 C4 1.32 4 2.64 4 4 C5.65 4 7.3 4 9 4 C8.01 4.33 7.02 4.66 6 5 C6 5.66 6 6.32 6 7 C7.32 7 8.64 7 10 7 C10 6.34 10 5.68 10 5 C11.98 4.67 13.96 4.34 16 4 C16.33 5.32 16.66 6.64 17 8 C15.68 8.33 14.36 8.66 13 9 C13.99 9.66 14.98 10.32 16 11 C14.865625 10.979375 13.73125 10.95875 12.5625 10.9375 C9.18424326 10.58422523 9.18424326 10.58422523 8 12 C5.98035801 12.07244053 3.95832876 12.08377188 1.9375 12.0625 C0.83277344 12.05347656 -0.27195312 12.04445312 -1.41015625 12.03515625 C-2.69212891 12.01775391 -2.69212891 12.01775391 -4 12 C-4 8.7 -4 5.4 -4 2 C-3.34 2 -2.68 2 -2 2 C-1.814375 3.7015625 -1.814375 3.7015625 -1.625 5.4375 C-1.315625 7.2009375 -1.315625 7.2009375 -1 9 C-0.34 9.33 0.32 9.66 1 10 C0.67 6.7 0.34 3.4 0 0 Z " fill="#D3D2BF" transform="translate(280,122)"/>
<path d="M0 0 C1.231394 3.69418201 0.64432764 6.2056261 0 10 C-5.33333333 10 -10.66666667 10 -16 10 C-16 9.01 -16 8.02 -16 7 C-18.12364481 6.77390663 -18.12364481 6.77390663 -19.625 8.5 C-20.07875 8.995 -20.5325 9.49 -21 10 C-20.67 7.36 -20.34 4.72 -20 2 C-15.25 1 -15.25 1 -13 1 C-13 1.99 -13 2.98 -13 4 C-12.13375 3.649375 -11.2675 3.29875 -10.375 2.9375 C-6.75174758 1.931041 -4.6146678 2.13936481 -1 3 C-0.67 2.01 -0.34 1.02 0 0 Z " fill="#ADAAAB" transform="translate(227,4)"/>
<path d="M0 0 C0.99 0 1.98 0 3 0 C3 2.97 3 5.94 3 9 C4.65 9 6.3 9 8 9 C8 6.36 8 3.72 8 1 C7.34 0.67 6.68 0.34 6 0 C7.32 0 8.64 0 10 0 C10 2.97 10 5.94 10 9 C12.31 9 14.62 9 17 9 C17 8.34 17 7.68 17 7 C15.68 6.67 14.36 6.34 13 6 C13.33 5.01 13.66 4.02 14 3 C15.32 3.33 16.64 3.66 18 4 C17.01 4 16.02 4 15 4 C15 4.66 15 5.32 15 6 C16.32 6 17.64 6 19 6 C19 7.32 19 8.64 19 10 C15.62805013 10.42542453 12.25262102 10.8099749 8.875 11.1875 C7.44800781 11.36829102 7.44800781 11.36829102 5.9921875 11.55273438 C0.41548279 12.15300467 -3.13370654 12.25238805 -8 9 C-7.67 8.01 -7.34 7.02 -7 6 C-6.01 6 -5.02 6 -4 6 C-4 5.34 -4 4.68 -4 4 C-4.99 3.67 -5.98 3.34 -7 3 C-5.35 3.33 -3.7 3.66 -2 4 C-2 5.65 -2 7.3 -2 9 C-1.01 9 -0.02 9 1 9 C1 7.35 1 5.7 1 4 C0.34 3.67 -0.32 3.34 -1 3 C-0.67 2.01 -0.34 1.02 0 0 Z " fill="#B5B99B" transform="translate(103,89)"/>
<path d="M0 0 C6.6 0 13.2 0 20 0 C19.67 0.99 19.34 1.98 19 3 C18.34 2.67 17.68 2.34 17 2 C16.9071875 3.3921875 16.9071875 3.3921875 16.8125 4.8125 C16 8 16 8 13.4375 9.875 C12.2309375 10.431875 12.2309375 10.431875 11 11 C10.113125 10.34 9.22625 9.68 8.3125 9 C5.01888014 7.01139933 3.71748127 6.56264926 0 7 C0 4.69 0 2.38 0 0 Z " fill="#F7F8E4" transform="translate(102,160)"/>
<path d="M0 0 C0.66 0.33 1.32 0.66 2 1 C2 1.66 2 2.32 2 3 C2.721875 2.814375 3.44375 2.62875 4.1875 2.4375 C7.12826973 1.98004693 9.14103058 2.26483643 12 3 C11.01 3.33 10.02 3.66 9 4 C9 4.99 9 5.98 9 7 C10.32 7.33 11.64 7.66 13 8 C13 8.99 13 9.98 13 11 C12.34 11 11.68 11 11 11 C11 11.66 11 12.32 11 13 C6.74433453 14.16063604 3.3164922 13.76173392 -1 13 C-0.67 11.02 -0.34 9.04 0 7 C0.66 7 1.32 7 2 7 C2 6.34 2 5.68 2 5 C1.34 5 0.68 5 0 5 C-0.5625 3.0625 -0.5625 3.0625 -1 1 C-0.67 0.67 -0.34 0.34 0 0 Z " fill="#F5F7EB" transform="translate(361,121)"/>
<path d="M0 0 C-0.99 0 -1.98 0 -3 0 C-3 0.66 -3 1.32 -3 2 C-1.68 2 -0.36 2 1 2 C1 3.65 1 5.3 1 7 C-1.64 7.33 -4.28 7.66 -7 8 C-7 9.32 -7 10.64 -7 12 C-7.99 12.66 -8.98 13.32 -10 14 C-10.36297936 15.97747122 -10.36297936 15.97747122 -10.1875 18.125 C-10.0946875 20.043125 -10.0946875 20.043125 -10 22 C-11.65 22 -13.3 22 -15 22 C-15.33 18.7 -15.66 15.4 -16 12 C-15.34 11.67 -14.68 11.34 -14 11 C-13.01 11.33 -12.02 11.66 -11 12 C-10.9175 11.05125 -10.835 10.1025 -10.75 9.125 C-10 6 -10 6 -7.9375 4.625 C-7.298125 4.41875 -6.65875 4.2125 -6 4 C-6 2.68 -6 1.36 -6 0 C-3.50907189 -1.24546405 -2.58919267 -0.7767578 0 0 Z " fill="#E0E2C9" transform="translate(121,178)"/>
<path d="M0 0 C4.53472086 0 8.56091024 0.06545479 13 1 C13 3.97 13 6.94 13 10 C9.13209997 10.96697501 7.91837998 10.979595 4.25 10.0625 C3.45078125 9.86785156 2.6515625 9.67320312 1.828125 9.47265625 C1.22484375 9.31667969 0.6215625 9.16070312 0 9 C0.66 8.67 1.32 8.34 2 8 C1.34 7.01 0.68 6.02 0 5 C-0.125 2.3125 -0.125 2.3125 0 0 Z " fill="#F4F6E2" transform="translate(361,158)"/>
<path d="M0 0 C1.65 0 3.3 0 5 0 C4.67 1.32 4.34 2.64 4 4 C4.66 4 5.32 4 6 4 C6.33 7.63 6.66 11.26 7 15 C4.525 16.485 4.525 16.485 2 18 C1.67 17.01 1.34 16.02 1 15 C0.195625 15.020625 -0.60875 15.04125 -1.4375 15.0625 C-4 15 -4 15 -5 14 C-5.04063832 12.33382885 -5.042721 10.66611905 -5 9 C-3.34385343 8.61781233 -1.67542976 8.28604898 0 8 C0.33 8.33 0.66 8.66 1 9 C0.67 6.03 0.34 3.06 0 0 Z " fill="#DDDDC9" transform="translate(205,186)"/>
<path d="M0 0 C1.62615234 0.01740234 1.62615234 0.01740234 3.28515625 0.03515625 C4.36667969 0.04417969 5.44820312 0.05320313 6.5625 0.0625 C7.94115234 0.07990234 7.94115234 0.07990234 9.34765625 0.09765625 C10.00765625 0.09765625 10.66765625 0.09765625 11.34765625 0.09765625 C12.68549018 0.41244071 14.01969334 0.74353281 15.34765625 1.09765625 C14.35765625 1.09765625 13.36765625 1.09765625 12.34765625 1.09765625 C12.34765625 1.75765625 12.34765625 2.41765625 12.34765625 3.09765625 C13.66765625 3.09765625 14.98765625 3.09765625 16.34765625 3.09765625 C16.34765625 4.41765625 16.34765625 5.73765625 16.34765625 7.09765625 C9.82457933 7.46688702 9.82457933 7.46688702 7.41015625 5.59765625 C7.05953125 5.10265625 6.70890625 4.60765625 6.34765625 4.09765625 C6.01765625 5.08765625 5.68765625 6.07765625 5.34765625 7.09765625 C-0.8046875 7.1953125 -0.8046875 7.1953125 -2.65234375 7.09765625 C-3.65234375 6.09765625 -3.65234375 6.09765625 -3.77734375 3.59765625 C-3.60435041 0.13778944 -3.47736889 0.12803273 0 0 Z " fill="#BCBF97" transform="translate(217.65234375,176.90234375)"/>
<path d="M0 0 C0.99 0 1.98 0 3 0 C5.09350689 3.4019487 5.17942163 6.05272412 5 10 C2.33333333 10 -0.33333333 10 -3 10 C-4.0209375 10.2784375 -4.0209375 10.2784375 -5.0625 10.5625 C-6.0215625 10.7790625 -6.0215625 10.7790625 -7 11 C-8 10 -8 10 -8.09765625 7.93359375 C-8.08605469 7.10988281 -8.07445312 6.28617188 -8.0625 5.4375 C-8.05347656 4.61121094 -8.04445312 3.78492188 -8.03515625 2.93359375 C-8.02355469 2.29550781 -8.01195312 1.65742188 -8 1 C-6.865625 1.020625 -5.73125 1.04125 -4.5625 1.0625 C-1.18424326 1.41577477 -1.18424326 1.41577477 0 0 Z " fill="#F8F8E4" transform="translate(180,140)"/>
<path d="M0 0 C0.66 0 1.32 0 2 0 C2.66 1.65 3.32 3.3 4 5 C3.01 5 2.02 5 1 5 C1.33 7.97 1.66 10.94 2 14 C1.01 14 0.02 14 -1 14 C-1.33 12.35 -1.66 10.7 -2 9 C-2.33 9.66 -2.66 10.32 -3 11 C-3.99 11.33 -4.98 11.66 -6 12 C-6 12.99 -6 13.98 -6 15 C-7.65 14.67 -9.3 14.34 -11 14 C-11.33 13.01 -11.66 12.02 -12 11 C-12.66 12.32 -13.32 13.64 -14 15 C-14 12.03 -14 9.06 -14 6 C-13.34 6 -12.68 6 -12 6 C-11.67 6.66 -11.34 7.32 -11 8 C-10.67 7.34 -10.34 6.68 -10 6 C-9.278125 6.12375 -8.55625 6.2475 -7.8125 6.375 C-3.55836783 5.80778238 -2.57194012 3.33657097 0 0 Z " fill="#FBFDF5" transform="translate(102,84)"/>
<path d="M0 0 C1.62615234 0.01740234 1.62615234 0.01740234 3.28515625 0.03515625 C4.36667969 0.04417969 5.44820312 0.05320313 6.5625 0.0625 C7.94115234 0.07990234 7.94115234 0.07990234 9.34765625 0.09765625 C10.00765625 0.09765625 10.66765625 0.09765625 11.34765625 0.09765625 C12.68549018 0.41244071 14.01969334 0.74353281 15.34765625 1.09765625 C14.35765625 1.09765625 13.36765625 1.09765625 12.34765625 1.09765625 C12.34765625 1.75765625 12.34765625 2.41765625 12.34765625 3.09765625 C13.66765625 3.42765625 14.98765625 3.75765625 16.34765625 4.09765625 C16.01765625 5.08765625 15.68765625 6.07765625 15.34765625 7.09765625 C9.72265625 7.34765625 9.72265625 7.34765625 6.34765625 5.09765625 C6.01765625 5.75765625 5.68765625 6.41765625 5.34765625 7.09765625 C-0.8046875 7.1953125 -0.8046875 7.1953125 -2.65234375 7.09765625 C-3.65234375 6.09765625 -3.65234375 6.09765625 -3.77734375 3.59765625 C-3.60435041 0.13778944 -3.47736889 0.12803273 0 0 Z " fill="#BFC097" transform="translate(217.65234375,142.90234375)"/>
<path d="M0 0 C4.95 0 9.9 0 15 0 C15.33 0.66 15.66 1.32 16 2 C16.66 2 17.32 2 18 2 C18.66 1.34 19.32 0.68 20 0 C20 2.31 20 4.62 20 7 C18.68 7 17.36 7 16 7 C15.34 7.01160156 14.68 7.02320313 14 7.03515625 C10.50881435 7.0828873 7.35431682 7.11810561 4 6 C4 5.34 4 4.68 4 4 C3.34 4 2.68 4 2 4 C2 4.99 2 5.98 2 7 C1.34 7 0.68 7 0 7 C0 4.69 0 2.38 0 0 Z " fill="#B7B99C" transform="translate(81,126)"/>
<path d="M0 0 C0.99 0 1.98 0 3 0 C4.26237731 2.52475462 4.09856404 4.31200466 4.0625 7.125 C4.05347656 8.03507813 4.04445312 8.94515625 4.03515625 9.8828125 C4.02355469 10.58148438 4.01195312 11.28015625 4 12 C4.66 12.33 5.32 12.66 6 13 C-2.42857143 14.42857143 -2.42857143 14.42857143 -7 12 C-7 10.35 -7 8.7 -7 7 C-6.38125 6.938125 -5.7625 6.87625 -5.125 6.8125 C-2.73182415 6.17775641 -2.73182415 6.17775641 -1.8125 3.5 C-1.544375 2.675 -1.27625 1.85 -1 1 C-0.67 0.67 -0.34 0.34 0 0 Z " fill="#DADAC6" transform="translate(207,154)"/>
<path d="M0 0 C4.47238653 1.41807378 8.71146306 3.11304374 13 5 C13 6.65 13 8.3 13 10 C8.8803623 11.29243536 5.33168317 12.26252625 1 12 C1 9.36 1 6.72 1 4 C0.34 4 -0.32 4 -1 4 C-0.67 2.68 -0.34 1.36 0 0 Z " fill="#DBDBC2" transform="translate(186,122)"/>
<path d="M0 0 C3.46679688 0.04882812 3.46679688 0.04882812 6.93359375 0.09765625 C6.93359375 3.39765625 6.93359375 6.69765625 6.93359375 10.09765625 C7.59359375 10.42765625 8.25359375 10.75765625 8.93359375 11.09765625 C4.64359375 11.09765625 0.35359375 11.09765625 -4.06640625 11.09765625 C-3.40640625 10.76765625 -2.74640625 10.43765625 -2.06640625 10.09765625 C-2.06640625 8.44765625 -2.06640625 6.79765625 -2.06640625 5.09765625 C-2.72640625 5.09765625 -3.38640625 5.09765625 -4.06640625 5.09765625 C-2.94676868 0.13926128 -2.94676868 0.13926128 0 0 Z " fill="#C2C3A5" transform="translate(106.06640625,104.90234375)"/>
<path d="M0 0 C1.11375 0.61875 1.11375 0.61875 2.25 1.25 C4 3 4 3 4.25 6.1875 C4.1675 7.115625 4.085 8.04375 4 9 C2.02 9 0.04 9 -2 9 C-2 8.34 -2 7.68 -2 7 C-2.66 7 -3.32 7 -4 7 C-4 6.34 -4 5.68 -4 5 C-4.99 5 -5.98 5 -7 5 C-7 6.32 -7 7.64 -7 9 C-7.66 9 -8.32 9 -9 9 C-9 6.36 -9 3.72 -9 1 C-10.32 0.67 -11.64 0.34 -13 0 C-9.83545443 -3.16454557 -3.33414688 -2.38153349 0 0 Z " fill="#F7F7E3" transform="translate(181,107)"/>
<path d="M0 0 C1.9609375 0.05078125 1.9609375 0.05078125 4.375 0.3125 C5.16648437 0.39113281 5.95796875 0.46976563 6.7734375 0.55078125 C9 1 9 1 12 3 C12.1875 5.625 12.1875 5.625 12 8 C7.94153944 8.98386923 4.17153059 9.3148325 0 9 C-2 6 -2 6 -1.6875 3.375 C-1 1 -1 1 0 0 Z " fill="#C8C8AB" transform="translate(278,192)"/>
<path d="M0 0 C0.9075 0.165 1.815 0.33 2.75 0.5 C5.92775121 0.9888848 7.91658201 0.70478125 11 0 C12 1 12 1 12.0625 4.5625 C12.041875 5.696875 12.02125 6.83125 12 8 C7.3008219 9.01603851 3.6991781 9.01603851 -1 8 C-1.04241723 5.66705225 -1.04092937 3.33297433 -1 1 C-0.67 0.67 -0.34 0.34 0 0 Z " fill="#B8B692" transform="translate(362,107)"/>
<path d="M0 0 C2.625 -0.1875 2.625 -0.1875 5 0 C6.1577506 3.47325181 6.06866652 6.36067448 6 10 C1.20862412 11.6290678 -2.05632546 12.20577428 -7 11 C-6.34 10.67 -5.68 10.34 -5 10 C-5 8.35 -5 6.7 -5 5 C-5.66 5 -6.32 5 -7 5 C-7 4.34 -7 3.68 -7 3 C-5.0625 2.4375 -5.0625 2.4375 -3 2 C-2.67 2.33 -2.34 2.66 -2 3 C-1.34 2.01 -0.68 1.02 0 0 Z " fill="#CECDB5" transform="translate(368,71)"/>
<path d="M0 0 C0 0.99 0 1.98 0 3 C-1.32 3 -2.64 3 -4 3 C-4 3.99 -4 4.98 -4 6 C-2.68 6.33 -1.36 6.66 0 7 C-0.33 8.32 -0.66 9.64 -1 11 C-2.62318979 11.36237263 -4.2486358 11.71465157 -5.875 12.0625 C-6.77992188 12.25972656 -7.68484375 12.45695313 -8.6171875 12.66015625 C-11 13 -11 13 -13 12 C-13 11.34 -13 10.68 -13 10 C-12.34 10 -11.68 10 -11 10 C-11 8.35 -11 6.7 -11 5 C-11.66 5 -12.32 5 -13 5 C-12.67 4.01 -12.34 3.02 -12 2 C-11.01 2 -10.02 2 -9 2 C-8.67 3.98 -8.34 5.96 -8 8 C-7.67 5.69 -7.34 3.38 -7 1 C-2.25 0 -2.25 0 0 0 Z " fill="#D6D8BD" transform="translate(374,190)"/>
<path d="M0 0 C5.94 0 11.88 0 18 0 C18.33 1.32 18.66 2.64 19 4 C17.68 4 16.36 4 15 4 C15 4.66 15 5.32 15 6 C16.32 6.33 17.64 6.66 19 7 C12.73 7 6.46 7 0 7 C0.99 6.67 1.98 6.34 3 6 C3 5.34 3 4.68 3 4 C2.01 3.67 1.02 3.34 0 3 C0.99 3 1.98 3 3 3 C3 2.34 3 1.68 3 1 C2.01 0.67 1.02 0.34 0 0 Z " fill="#959494" transform="translate(96,41)"/>
<path d="M0 0 C0.66 0.66 1.32 1.32 2 2 C1.67 2.99 1.34 3.98 1 5 C2.65 4.67 4.3 4.34 6 4 C6 3.01 6 2.02 6 1 C6.66 1 7.32 1 8 1 C8 4.3 8 7.6 8 11 C3.71 11 -0.58 11 -5 11 C-4.34 10.67 -3.68 10.34 -3 10 C-3 8.35 -3 6.7 -3 5 C-3.66 4.67 -4.32 4.34 -5 4 C-4.34 3.67 -3.68 3.34 -3 3 C-3 2.34 -3 1.68 -3 1 C-2.01 0.67 -1.02 0.34 0 0 Z " fill="#BAB7B5" transform="translate(37,37)"/>
<path d="M0 0 C1.67542976 0.28604898 3.34385343 0.61781233 5 1 C4.67 4.3 4.34 7.6 4 11 C3.34 11 2.68 11 2 11 C2.495 11.598125 2.99 12.19625 3.5 12.8125 C5 15 5 15 5 18 C4.01 18 3.02 18 2 18 C2 19.65 2 21.3 2 23 C2.99 23.33 3.98 23.66 5 24 C3.35 23.67 1.7 23.34 0 23 C0 21.35 0 19.7 0 18 C-0.66 17.67 -1.32 17.34 -2 17 C-1.34 17 -0.68 17 0 17 C-0.185625 16.236875 -0.37125 15.47375 -0.5625 14.6875 C-1 12 -1 12 0 9 C-0.13019419 6.9670885 -0.13019419 6.9670885 -0.5 4.875 C-0.665 3.59625 -0.83 2.3175 -1 1 C-0.67 0.67 -0.34 0.34 0 0 Z " fill="#FCFCEB" transform="translate(194,160)"/>
<path d="M0 0 C3.96 0 7.92 0 12 0 C12 2.64 12 5.28 12 8 C7.71 8 3.42 8 -1 8 C-0.67 6.35 -0.34 4.7 0 3 C0.99 3 1.98 3 3 3 C3 2.34 3 1.68 3 1 C2.01 0.67 1.02 0.34 0 0 Z " fill="#EFF1CE" transform="translate(89,160)"/>
<path d="M0 0 C2.9375 0.375 2.9375 0.375 6 1 C6.33 1.66 6.66 2.32 7 3 C8.65 2.67 10.3 2.34 12 2 C12 4.31 12 6.62 12 9 C10.02 9 8.04 9 6 9 C5.67 8.34 5.34 7.68 5 7 C4.34 7.66 3.68 8.32 3 9 C0.375 9.125 0.375 9.125 -2 9 C-1.34 6.03 -0.68 3.06 0 0 Z " fill="#6B6967" transform="translate(173,5)"/>
<path d="M0 0 C0.99 1.485 0.99 1.485 2 3 C1.34 3 0.68 3 0 3 C0 2.01 0 1.02 0 0 Z M0.06640625 2.90234375 C1.30197266 2.91974609 1.30197266 2.91974609 2.5625 2.9375 C3.38878906 2.94652344 4.21507812 2.95554687 5.06640625 2.96484375 C5.70449219 2.97644531 6.34257812 2.98804687 7 3 C7 3.66 7 4.32 7 5 C7.99 5.33 8.98 5.66 10 6 C9.01 6 8.02 6 7 6 C7 7.65 7 9.3 7 11 C7.99 11.33 8.98 11.66 10 12 C8.865625 11.814375 7.73125 11.62875 6.5625 11.4375 C5.386875 11.293125 4.21125 11.14875 3 11 C2.67 11.33 2.34 11.66 2 12 C0.33382885 12.04063832 -1.33388095 12.042721 -3 12 C-3.09765625 5.84765625 -3.09765625 5.84765625 -3 4 C-2 3 -2 3 0.06640625 2.90234375 Z " fill="#D7DABF" transform="translate(189,104)"/>
<path d="M0 0 C4.71910453 -0.32545548 7.18800694 -0.39149665 11.5 1.6875 C14 4 14 4 14.4375 6.6875 C14 9 14 9 13 10 C11.00041636 10.04080783 8.99954746 10.04254356 7 10 C6.67 8.68 6.34 7.36 6 6 C5.67 7.32 5.34 8.64 5 10 C4.34 10 3.68 10 3 10 C3 7.36 3 4.72 3 2 C2.01 2 1.02 2 0 2 C0 1.34 0 0.68 0 0 Z " fill="#CECFB2" transform="translate(185,191)"/>
<path d="M0 0 C0.66 0 1.32 0 2 0 C2 3.3 2 6.6 2 10 C0.02090602 10.02686553 -1.95828971 10.04633375 -3.9375 10.0625 C-5.03964844 10.07410156 -6.14179688 10.08570313 -7.27734375 10.09765625 C-10 10 -10 10 -11 9 C-11.04063832 7.33382885 -11.042721 5.66611905 -11 4 C-7.23197087 3.185291 -3.85318348 3 0 3 C0 2.01 0 1.02 0 0 Z " fill="#B5B99A" transform="translate(302,174)"/>
<path d="M0 0 C1.32 0 2.64 0 4 0 C4 3.96 4 7.92 4 12 C4.66 12.33 5.32 12.66 6 13 C4.02 13 2.04 13 0 13 C0.66 12.67 1.32 12.34 2 12 C1.67 9.69 1.34 7.38 1 5 C0.34 7.31 -0.32 9.62 -1 12 C-2.65614657 12.38218767 -4.32457024 12.71395102 -6 13 C-7 12 -7 12 -7.375 9.625 C-7.25125 8.75875 -7.1275 7.8925 -7 7 C-4.625 5.4375 -4.625 5.4375 -2 4 C-0.67206394 1.93299345 -0.67206394 1.93299345 0 0 Z " fill="#CBCBB8" transform="translate(207,120)"/>
<path d="M0 0 C1.98 0 3.96 0 6 0 C6 0.66 6 1.32 6 2 C6.969375 1.979375 7.93875 1.95875 8.9375 1.9375 C12 2 12 2 13 3 C13.04080783 4.99958364 13.04254356 7.00045254 13 9 C10.125 9.1875 10.125 9.1875 7 9 C6.34 8.01 5.68 7.02 5 6 C4.01 5.67 3.02 5.34 2 5 C2 6.32 2 7.64 2 9 C1.34 9 0.68 9 0 9 C0 6.03 0 3.06 0 0 Z " fill="#F4F4DD" transform="translate(172,175)"/>
<path d="M0 0 C0.99 0 1.98 0 3 0 C3 2.97 3 5.94 3 9 C3.66 9.33 4.32 9.66 5 10 C3.18757948 10.02687279 1.37504767 10.04633715 -0.4375 10.0625 C-1.44683594 10.07410156 -2.45617187 10.08570313 -3.49609375 10.09765625 C-6 10 -6 10 -7 9 C-7.04063832 7.33382885 -7.042721 5.66611905 -7 4 C-7.66 3.67 -8.32 3.34 -9 3 C-8.34 3 -7.68 3 -7 3 C-7 2.34 -7 1.68 -7 1 C-6.34 1 -5.68 1 -5 1 C-5 1.66 -5 2.32 -5 3 C-3.68 3 -2.36 3 -1 3 C-0.67 2.01 -0.34 1.02 0 0 Z " fill="#C6C6C6" transform="translate(306,38)"/>
<path d="M0 0 C0.99 0.33 1.98 0.66 3 1 C3 1.99 3 2.98 3 4 C3.99 4.33 4.98 4.66 6 5 C5.01 5 4.02 5 3 5 C3 6.65 3 8.3 3 10 C3.99 10.33 4.98 10.66 6 11 C4.35 10.67 2.7 10.34 1 10 C1 8.35 1 6.7 1 5 C0.01 5.495 0.01 5.495 -1 6 C-1.65555119 8.52733235 -1.65555119 8.52733235 -2 11 C-3.65 11 -5.3 11 -7 11 C-7 8.03 -7 5.06 -7 2 C-6.21625 2.04125 -5.4325 2.0825 -4.625 2.125 C-1.83883881 2.28728734 -1.83883881 2.28728734 0 0 Z " fill="#D2D6B8" transform="translate(193,139)"/>
<path d="M0 0 C1.50046875 0.00386719 1.50046875 0.00386719 3.03125 0.0078125 C4.0315625 0.00523438 5.031875 0.00265625 6.0625 0 C8.53125 0.1328125 8.53125 0.1328125 9.53125 1.1328125 C9.57188832 2.79898365 9.573971 4.46669345 9.53125 6.1328125 C5.47851192 7.11529446 1.69589926 7.29299132 -2.46875 7.1328125 C-3.46875 6.1328125 -3.46875 6.1328125 -3.59375 3.6328125 C-3.42632554 0.28432331 -3.34481455 0.17994255 0 0 Z " fill="#F1F2EA" transform="translate(266.46875,40.8671875)"/>
<path d="M0 0 C3.465 1.485 3.465 1.485 7 3 C7 4.98 7 6.96 7 9 C6.34 9 5.68 9 5 9 C5 7.02 5 5.04 5 3 C4.01 3.495 4.01 3.495 3 4 C2.34444881 6.52733235 2.34444881 6.52733235 2 9 C-0.33294775 9.04241723 -2.66702567 9.04092937 -5 9 C-6 8 -6 8 -6.125 5.5 C-6 3 -6 3 -5 2 C-3.33382885 1.95936168 -1.66611905 1.957279 0 2 C0 1.34 0 0.68 0 0 Z " fill="#BAB995" transform="translate(206,141)"/>
<path d="M0 0 C0.66 0 1.32 0 2 0 C2 0.66 2 1.32 2 2 C2.99 2.33 3.98 2.66 5 3 C4.01 3 3.02 3 2 3 C2 4.65 2 6.3 2 8 C2.99 8.33 3.98 8.66 5 9 C4.67 9.33 4.34 9.66 4 10 C1.97591245 9.90997602 -0.04544287 9.75358962 -2.0625 9.5625 C-3.16722656 9.46066406 -4.27195313 9.35882813 -5.41015625 9.25390625 C-6.26480469 9.17011719 -7.11945313 9.08632812 -8 9 C-6.68 8.67 -5.36 8.34 -4 8 C-4 7.34 -4 6.68 -4 6 C-5.32 5.67 -6.64 5.34 -8 5 C-7.67 4.01 -7.34 3.02 -7 2 C-4.69 2 -2.38 2 0 2 C0 1.34 0 0.68 0 0 Z " fill="#CFD0B7" transform="translate(194,90)"/>
<path d="M0 0 C1.32 0.66 2.64 1.32 4 2 C4 5.3 4 8.6 4 12 C3.34 12 2.68 12 2 12 C1.34 10.68 0.68 9.36 0 8 C-0.33 9.32 -0.66 10.64 -1 12 C-2.65 12 -4.3 12 -6 12 C-6 11.34 -6 10.68 -6 10 C-5.34 10 -4.68 10 -4 10 C-3.896875 8.72125 -3.79375 7.4425 -3.6875 6.125 C-3.51171875 3.9453125 -3.51171875 3.9453125 -3 2 C-2.01 1.34 -1.02 0.68 0 0 Z " fill="#F9F9EA" transform="translate(90,104)"/>
<path d="M0 0 C1.32 0.33 2.64 0.66 4 1 C3.34 1 2.68 1 2 1 C1.95101562 1.71027344 1.90203125 2.42054688 1.8515625 3.15234375 C1.77679688 4.07144531 1.70203125 4.99054687 1.625 5.9375 C1.55539063 6.85402344 1.48578125 7.77054688 1.4140625 8.71484375 C1.27742187 9.46894531 1.14078125 10.22304687 1 11 C0.01 11.495 0.01 11.495 -1 12 C-1 11.34 -1 10.68 -1 10 C-2.32 10 -3.64 10 -5 10 C-5 10.66 -5 11.32 -5 12 C-5.99 11.67 -6.98 11.34 -8 11 C-7.67 8.69 -7.34 6.38 -7 4 C-6.030625 3.71125 -5.06125 3.4225 -4.0625 3.125 C-0.89335797 2.35785318 -0.89335797 2.35785318 0 0 Z " fill="#F1EFED" transform="translate(235,4)"/>
<path d="M0 0 C0.9075 0.165 1.815 0.33 2.75 0.5 C5.92775121 0.9888848 7.91658201 0.70478125 11 0 C12 1 12 1 12.0625 3.5625 C12.041875 4.366875 12.02125 5.17125 12 6 C11.34 5.34 10.68 4.68 10 4 C10 3.01 10 2.02 10 1 C9.01 1.495 9.01 1.495 8 2 C7.83312552 4.41645782 7.83312552 4.41645782 8 7 C8.66 7.66 9.32 8.32 10 9 C9.360625 8.814375 8.72125 8.62875 8.0625 8.4375 C7.0415625 8.2209375 7.0415625 8.2209375 6 8 C5.67 8.33 5.34 8.66 5 9 C3.00041636 9.04080783 0.99954746 9.04254356 -1 9 C-0.34 6.69 0.32 4.38 1 2 C0.34 1.67 -0.32 1.34 -1 1 C-0.67 0.67 -0.34 0.34 0 0 Z " fill="#ACAD88" transform="translate(355,141)"/>
<path d="M0 0 C1.66666667 0.33333333 3.33333333 0.66666667 5 1 C5.33 0.67 5.66 0.34 6 0 C7.99958364 -0.04080783 10.00045254 -0.04254356 12 0 C12 2.31 12 4.62 12 7 C11.34 7 10.68 7 10 7 C10 5.02 10 3.04 10 1 C9.01 1.495 9.01 1.495 8 2 C7.34444881 4.52733235 7.34444881 4.52733235 7 7 C4.66705225 7.04241723 2.33297433 7.04092937 0 7 C-1 6 -1 6 -1.125 3.5 C-1 1 -1 1 0 0 Z " fill="#B5B38D" transform="translate(201,177)"/>
<path d="M0 0 C1.65322266 0.01740234 1.65322266 0.01740234 3.33984375 0.03515625 C4.99693359 0.04869141 4.99693359 0.04869141 6.6875 0.0625 C7.54214844 0.07410156 8.39679688 0.08570312 9.27734375 0.09765625 C8.94734375 1.08765625 8.61734375 2.07765625 8.27734375 3.09765625 C8.27734375 2.43765625 8.27734375 1.77765625 8.27734375 1.09765625 C7.28734375 1.59265625 7.28734375 1.59265625 6.27734375 2.09765625 C5.62179256 4.6249886 5.62179256 4.6249886 5.27734375 7.09765625 C2.4891072 8.13033645 1.40961635 8.14274918 -1.47265625 7.16015625 C-2.21515625 6.80953125 -2.95765625 6.45890625 -3.72265625 6.09765625 C-3.76537725 4.4315372 -3.76329457 2.7638274 -3.72265625 1.09765625 C-2.72265625 0.09765625 -2.72265625 0.09765625 0 0 Z " fill="#BEC19B" transform="translate(217.72265625,108.90234375)"/>
<path d="M0 0 C3.96 0 7.92 0 12 0 C12 2.31 12 4.62 12 7 C7.71 7 3.42 7 -1 7 C-0.67 5.68 -0.34 4.36 0 3 C0.99 3 1.98 3 3 3 C3 2.34 3 1.68 3 1 C2.01 0.67 1.02 0.34 0 0 Z " fill="#9A9797" transform="translate(348,41)"/>
<path d="M0 0 C1.65 0 3.3 0 5 0 C4.01 0.33 3.02 0.66 2 1 C2 1.99 2 2.98 2 4 C2.886875 3.649375 3.77375 3.29875 4.6875 2.9375 C8.06203126 1.98244398 9.69686152 2.02848868 13 3 C13 4.98 13 6.96 13 9 C11.02 9 9.04 9 7 9 C7 7.68 7 6.36 7 5 C5.35 5 3.7 5 2 5 C2 6.32 2 7.64 2 9 C1.34 9 0.68 9 0 9 C0 6.03 0 3.06 0 0 Z " fill="#DADCB8" transform="translate(172,90)"/>
<path d="M0 0 C4.29 0 8.58 0 13 0 C13 2.31 13 4.62 13 7 C11.02 7 9.04 7 7 7 C6.34 5.02 5.68 3.04 5 1 C4.34 1 3.68 1 3 1 C3 2.65 3 4.3 3 6 C3.66 6.33 4.32 6.66 5 7 C3.68 6.67 2.36 6.34 1 6 C1.33 4.35 1.66 2.7 2 1 C1.34 0.67 0.68 0.34 0 0 Z " fill="#999592" transform="translate(186,7)"/>
<path d="M0 0 C3.5625 0.1875 3.5625 0.1875 5.5625 2.1875 C5.6875 4.8125 5.6875 4.8125 5.5625 7.1875 C2.47092747 8.73328627 -0.12223019 7.79027633 -3.4375 7.1875 C-4.4375 6.1875 -4.4375 6.1875 -4.5625 3.6875 C-4.36893389 -0.18382213 -4.00512893 0.21846158 0 0 Z " fill="#BEBD99" transform="translate(204.4375,91.8125)"/>
<path d="M0 0 C1.51400391 0.01740234 1.51400391 0.01740234 3.05859375 0.03515625 C4.07050781 0.04417969 5.08242187 0.05320312 6.125 0.0625 C7.29869141 0.07990234 7.29869141 0.07990234 8.49609375 0.09765625 C7.83609375 0.75765625 7.17609375 1.41765625 6.49609375 2.09765625 C5.84841582 4.66826936 5.84841582 4.66826936 5.49609375 7.09765625 C-0.65625 7.1953125 -0.65625 7.1953125 -2.50390625 7.09765625 C-3.50390625 6.09765625 -3.50390625 6.09765625 -3.62890625 3.59765625 C-3.46040034 0.22753809 -3.3738912 0.13158702 0 0 Z " fill="#BCBE95" transform="translate(133.50390625,125.90234375)"/>
<path d="M0 0 C-0.66 0 -1.32 0 -2 0 C-1.67 0.66 -1.34 1.32 -1 2 C-0.95977609 4.3329866 -0.95679753 6.66706666 -1 9 C0.98 9 2.96 9 5 9 C5 9.33 5 9.66 5 10 C0.28400182 10.92470553 -2.67265609 11.22923777 -7 9 C-7 6.03 -7 3.06 -7 0 C-3 -1 -3 -1 0 0 Z " fill="#F8F8E3" transform="translate(283,158)"/>
<path d="M0 0 C0.33 0 0.66 0 1 0 C1.33 2.31 1.66 4.62 2 7 C2.66 7 3.32 7 4 7 C4.33 4.69 4.66 2.38 5 0 C5.66 0 6.32 0 7 0 C7.33 0.66 7.66 1.32 8 2 C10.02463255 2.65213292 10.02463255 2.65213292 12 3 C11.01 3 10.02 3 9 3 C9 3.66 9 4.32 9 5 C10.32 5.33 11.64 5.66 13 6 C12.67 6.99 12.34 7.98 12 9 C10.18757948 9.02687279 8.37504767 9.04633715 6.5625 9.0625 C5.55316406 9.07410156 4.54382813 9.08570313 3.50390625 9.09765625 C1 9 1 9 0 8 C-0.14115161 5.32941149 -0.04247107 2.67567762 0 0 Z " fill="#ACAF91" transform="translate(277,175)"/>
<path d="M0 0 C1.134375 0.020625 2.26875 0.04125 3.4375 0.0625 C3.7675 0.7225 4.0975 1.3825 4.4375 2.0625 C5.0975 2.0625 5.7575 2.0625 6.4375 2.0625 C7.0975 1.4025 7.7575 0.7425 8.4375 0.0625 C8.4375 2.3725 8.4375 4.6825 8.4375 7.0625 C6.4375 7.0625 4.4375 7.0625 2.4375 7.0625 C2.4375 6.0725 2.4375 5.0825 2.4375 4.0625 C0.7875 4.3925 -0.8625 4.7225 -2.5625 5.0625 C-1.5725 5.7225 -0.5825 6.3825 0.4375 7.0625 C-1.2125 6.7325 -2.8625 6.4025 -4.5625 6.0625 C-4.605221 4.39638095 -4.60313832 2.72867115 -4.5625 1.0625 C-3.5625 0.0625 -3.5625 0.0625 0 0 Z " fill="#A7A582" transform="translate(295.5625,142.9375)"/>
<path d="M0 0 C-1.485 1.485 -1.485 1.485 -3 3 C-1.68 3.66 -0.36 4.32 1 5 C-0.32 5.33 -1.64 5.66 -3 6 C-2.01 6.33 -1.02 6.66 0 7 C-0.33 8.32 -0.66 9.64 -1 11 C-3.31 10.01 -5.62 9.02 -8 8 C-8 6.02 -8 4.04 -8 2 C-8.66 1.67 -9.32 1.34 -10 1 C-6.59437148 0.22157062 -3.49234244 -0.09978121 0 0 Z " fill="#BABDA1" transform="translate(219,91)"/>
<path d="M0 0 C1.32 0 2.64 0 4 0 C4.33 3.3 4.66 6.6 5 10 C1.37 10 -2.26 10 -6 10 C-5.67 8.02 -5.34 6.04 -5 4 C-5.66 3.67 -6.32 3.34 -7 3 C-5.68 3 -4.36 3 -3 3 C-3 4.98 -3 6.96 -3 9 C-2.01 9 -1.02 9 0 9 C0 6.03 0 3.06 0 0 Z " fill="#B2B690" transform="translate(109,174)"/>
<path d="M0 0 C0.66 0 1.32 0 2 0 C2 0.66 2 1.32 2 2 C3.98 2 5.96 2 8 2 C8 3.32 8 4.64 8 6 C8.66 6 9.32 6 10 6 C10.33 4.68 10.66 3.36 11 2 C12 5 12 5 11.22265625 6.82421875 C10.1484375 8.54947917 9.07421875 10.27473958 8 12 C7.01 11.67 6.02 11.34 5 11 C5.66 10.34 6.32 9.68 7 9 C6.67801034 5.90073181 6.67801034 5.90073181 6 3 C4.68 3 3.36 3 2 3 C2 4.65 2 6.3 2 8 C2.99 8.33 3.98 8.66 5 9 C3.35 8.67 1.7 8.34 0 8 C0 6.35 0 4.7 0 3 C-0.66 2.67 -1.32 2.34 -2 2 C-1.34 2 -0.68 2 0 2 C0 1.34 0 0.68 0 0 Z " fill="#908F90" transform="translate(166,39)"/>
<path d="M0 0 C1.98 0.495 1.98 0.495 4 1 C3.01 1 2.02 1 1 1 C1 1.66 1 2.32 1 3 C2.32 3 3.64 3 5 3 C5 2.34 5 1.68 5 1 C6.98 0.67 8.96 0.34 11 0 C11.33 1.32 11.66 2.64 12 4 C10.68 4.33 9.36 4.66 8 5 C8.99 5.66 9.98 6.32 11 7 C7.04 7 3.08 7 -1 7 C0.32 6.67 1.64 6.34 3 6 C3 5.34 3 4.68 3 4 C1.68 3.67 0.36 3.34 -1 3 C-0.67 2.01 -0.34 1.02 0 0 Z " fill="#9E9F75" transform="translate(285,126)"/>
<path d="M0 0 C1.65 0.33 3.3 0.66 5 1 C4.67 3.31 4.34 5.62 4 8 C5.32 8.66 6.64 9.32 8 10 C8 10.33 8 10.66 8 11 C5.03 11 2.06 11 -1 11 C-0.67 7.37 -0.34 3.74 0 0 Z " fill="#F6F6DB" transform="translate(32,89)"/>
<path d="M0 0 C1.65 0 3.3 0 5 0 C5.87890625 6.15234375 5.87890625 6.15234375 6 8 C5 9 5 9 2.4375 9.0625 C1.633125 9.041875 0.82875 9.02125 0 9 C-0.66 7.35 -1.32 5.7 -2 4 C-1.34 4 -0.68 4 0 4 C0 2.68 0 1.36 0 0 Z " fill="#CDCEB2" transform="translate(354,175)"/>
<path d="M0 0 C2.64 0 5.28 0 8 0 C8.33 0.99 8.66 1.98 9 3 C8.54625 3.391875 8.0925 3.78375 7.625 4.1875 C5.72357081 6.30832487 4.93795972 8.33042235 4 11 C3.34 11 2.68 11 2 11 C2.04125 10.21625 2.0825 9.4325 2.125 8.625 C2.28728734 5.83883881 2.28728734 5.83883881 0 4 C0 2.68 0 1.36 0 0 Z " fill="#D3D4C0" transform="translate(31,173)"/>
<path d="M0 0 C1.134375 0.020625 2.26875 0.04125 3.4375 0.0625 C4.77082095 2.7291419 4.10852033 4.22930303 3.4375 7.0625 C1.10455225 7.10491723 -1.22952567 7.10342937 -3.5625 7.0625 C-4.5625 6.0625 -4.5625 6.0625 -4.6875 3.5625 C-4.4904197 -0.37910609 -4.10054684 0.07193942 0 0 Z " fill="#B7B68F" transform="translate(204.5625,108.9375)"/>
<path d="M0 0 C1.66611905 -0.042721 3.33382885 -0.04063832 5 0 C6 1 6 1 6.125 4.5 C6 8 6 8 5 9 C3.33382885 9.04063832 1.66611905 9.042721 0 9 C0 6.03 0 3.06 0 0 Z " fill="#898B6A" transform="translate(88,192)"/>
<path d="M0 0 C0.33 0.66 0.66 1.32 1 2 C1.66 2 2.32 2 3 2 C3.66 1.34 4.32 0.68 5 0 C5 2.31 5 4.62 5 7 C1.18792739 7 -2.25801961 6.70603404 -6 6 C-6.33 5.34 -6.66 4.68 -7 4 C-5.35 4 -3.7 4 -2 4 C-3.65 3.67 -5.3 3.34 -7 3 C-4.49955934 -0.00052879 -4.2621484 0 0 0 Z " fill="#C2C2A5" transform="translate(96,126)"/>
<path d="M0 0 C0.66 0.33 1.32 0.66 2 1 C2 1.66 2 2.32 2 3 C2.99 3.33 3.98 3.66 5 4 C4.79375 4.94875 4.5875 5.8975 4.375 6.875 C4.25125 7.90625 4.1275 8.9375 4 10 C4.66 10.66 5.32 11.32 6 12 C5 13 5 13 1.9375 13.0625 C0.968125 13.041875 -0.00125 13.02125 -1 13 C-0.67 11.02 -0.34 9.04 0 7 C0.66 7 1.32 7 2 7 C2 6.34 2 5.68 2 5 C1.34 5 0.68 5 0 5 C-0.5625 3.0625 -0.5625 3.0625 -1 1 C-0.67 0.67 -0.34 0.34 0 0 Z " fill="#F7F6E0" transform="translate(361,121)"/>
<path d="M0 0 C0.99 0 1.98 0 3 0 C3 0.66 3 1.32 3 2 C2.01 2 1.02 2 0 2 C0 1.34 0 0.68 0 0 Z M-1 2 C1.0625 2.4375 1.0625 2.4375 3 3 C3 4.98 3 6.96 3 9 C3.66 9.33 4.32 9.66 5 10 C3.02 10 1.04 10 -1 10 C-0.34 9.67 0.32 9.34 1 9 C0.67 8.01 0.34 7.02 0 6 C-0.99 6 -1.98 6 -3 6 C-3 5.34 -3 4.68 -3 4 C-3.99 4.495 -3.99 4.495 -5 5 C-5.65555119 7.52733235 -5.65555119 7.52733235 -6 10 C-6.66 10 -7.32 10 -8 10 C-8 7.69 -8 5.38 -8 3 C-6.5459375 3.0309375 -6.5459375 3.0309375 -5.0625 3.0625 C-2.12534105 3.35618499 -2.12534105 3.35618499 -1 2 Z " fill="#A6A88A" transform="translate(117,123)"/>
<path d="M0 0 C1.65 0.33 3.3 0.66 5 1 C5 1.99 5 2.98 5 4 C3.68 4.33 2.36 4.66 1 5 C2.65 5.33 4.3 5.66 6 6 C6 4.02 6 2.04 6 0 C7.98 0 9.96 0 12 0 C11.67 0.99 11.34 1.98 11 3 C10.34 2.67 9.68 2.34 9 2 C8.67 3.65 8.34 5.3 8 7 C5.36 7 2.72 7 0 7 C-1.125 2.25 -1.125 2.25 0 0 Z " fill="#A1A57E" transform="translate(110,75)"/>
<path d="M0 0 C2 0 4 0 6 0 C6 0.99 6 1.98 6 3 C6.66 3.33 7.32 3.66 8 4 C7.67 5.32 7.34 6.64 7 8 C7.99 8.33 8.98 8.66 10 9 C7.69 9 5.38 9 3 9 C3 8.01 3 7.02 3 6 C0.87635519 5.77390663 0.87635519 5.77390663 -0.625 7.5 C-1.07875 7.995 -1.5325 8.49 -2 9 C-1.125 1.125 -1.125 1.125 0 0 Z " fill="#868489" transform="translate(208,5)"/>
<path d="M0 0 C1.67542976 0.28604898 3.34385343 0.61781233 5 1 C5 3.31 5 5.62 5 8 C3.34385343 8.38218767 1.67542976 8.71395102 0 9 C-1 8 -1 8 -1.125 4.5 C-1 1 -1 1 0 0 Z " fill="#B0B396" transform="translate(369,175)"/>
<path d="M0 0 C1.67542976 0.28604898 3.34385343 0.61781233 5 1 C5 3.31 5 5.62 5 8 C3.34385343 8.38218767 1.67542976 8.71395102 0 9 C-1 8 -1 8 -1.125 4.5 C-1 1 -1 1 0 0 Z " fill="#B0B395" transform="translate(369,158)"/>
<path d="M0 0 C1.67542976 0.28604898 3.34385343 0.61781233 5 1 C5 3.31 5 5.62 5 8 C3.34385343 8.38218767 1.67542976 8.71395102 0 9 C-1 8 -1 8 -1.125 4.5 C-1 1 -1 1 0 0 Z " fill="#B0B294" transform="translate(369,141)"/>
<path d="M0 0 C1.67542976 0.28604898 3.34385343 0.61781233 5 1 C5 3.31 5 5.62 5 8 C3.34385343 8.38218767 1.67542976 8.71395102 0 9 C-1 8 -1 8 -1.125 4.5 C-1 1 -1 1 0 0 Z " fill="#B0B196" transform="translate(369,107)"/>
<path d="M0 0 C1.67542976 0.28604898 3.34385343 0.61781233 5 1 C5 3.31 5 5.62 5 8 C3.34385343 8.38218767 1.67542976 8.71395102 0 9 C-1 8 -1 8 -1.125 4.5 C-1 1 -1 1 0 0 Z " fill="#909171" transform="translate(369,90)"/>
<path d="M0 0 C1.67542976 0.28604898 3.34385343 0.61781233 5 1 C5 3.31 5 5.62 5 8 C3.34385343 8.38218767 1.67542976 8.71395102 0 9 C-1 8 -1 8 -1.125 4.5 C-1 1 -1 1 0 0 Z " fill="#B0B296" transform="translate(369,73)"/>
<path d="M0 0 C1.65 0 3.3 0 5 0 C5.87890625 6.15234375 5.87890625 6.15234375 6 8 C5 9 5 9 2.4375 9.0625 C1.633125 9.041875 0.82875 9.02125 0 9 C0 6.03 0 3.06 0 0 Z " fill="#AEAE88" transform="translate(88,141)"/>
<path d="M0 0 C0.66 0 1.32 0 2 0 C2 3.3 2 6.6 2 10 C0.02 10 -1.96 10 -4 10 C-4 8.02 -4 6.04 -4 4 C-2.68 3.67 -1.36 3.34 0 3 C0 2.01 0 1.02 0 0 Z " fill="#B5B99A" transform="translate(302,191)"/>
<path d="M0 0 C0.8971875 0.309375 0.8971875 0.309375 1.8125 0.625 C0.8225 0.625 -0.1675 0.625 -1.1875 0.625 C-1.1875 1.285 -1.1875 1.945 -1.1875 2.625 C0.1325 2.625 1.4525 2.625 2.8125 2.625 C2.8125 3.945 2.8125 5.265 2.8125 6.625 C-0.4375 6.9375 -0.4375 6.9375 -4.1875 6.625 C-6.625 4.125 -6.625 4.125 -8.1875 1.625 C-7.1975 1.625 -6.2075 1.625 -5.1875 1.625 C-2.1875 -0.375 -2.1875 -0.375 0 0 Z " fill="#CACCAF" transform="translate(231.1875,177.375)"/>
<path d="M0 0 C1.65 0 3.3 0 5 0 C5 3.3 5 6.6 5 10 C4.34 10 3.68 10 3 10 C2.34 8.68 1.68 7.36 1 6 C0.34 7.32 -0.32 8.64 -1 10 C-1.02689216 8.52093108 -1.04634621 7.04172517 -1.0625 5.5625 C-1.07410156 4.73878906 -1.08570312 3.91507813 -1.09765625 3.06640625 C-1 1 -1 1 0 0 Z " fill="#B6B4A2" transform="translate(89,174)"/>
<path d="M0 0 C1.4540625 0.0309375 1.4540625 0.0309375 2.9375 0.0625 C2.9375 2.3725 2.9375 4.6825 2.9375 7.0625 C0.93795254 7.10504356 -1.06291636 7.10330783 -3.0625 7.0625 C-4.0625 6.0625 -4.0625 6.0625 -4.1875 3.5625 C-4.00295237 -0.12845252 -3.76342282 0.07680455 0 0 Z " fill="#F7F9E0" transform="translate(78.0625,125.9375)"/>
<path d="M0 0 C2.475 0.495 2.475 0.495 5 1 C5.38063221 3.3260857 5.71269945 5.66055264 6 8 C5 9 5 9 2.4375 9.0625 C1.633125 9.041875 0.82875 9.02125 0 9 C0 6.03 0 3.06 0 0 Z " fill="#AEAE8A" transform="translate(284,107)"/>
<path d="M0 0 C1.65 0.33 3.3 0.66 5 1 C5 3.31 5 5.62 5 8 C3.35 8.33 1.7 8.66 0 9 C-0.84454356 5.62182575 -1.10844919 3.32534757 0 0 Z " fill="#ABAC8C" transform="translate(33,192)"/>
<path d="M0 0 C0.66 0 1.32 0 2 0 C2 3.3 2 6.6 2 10 C0.35 10 -1.3 10 -3 10 C-4 9 -4 9 -4.0625 6.4375 C-4.041875 5.633125 -4.02125 4.82875 -4 4 C-2.68 3.67 -1.36 3.34 0 3 C0 2.01 0 1.02 0 0 Z " fill="#B4B898" transform="translate(302,123)"/>
<path d="M0 0 C0.66 0 1.32 0 2 0 C2 3.3 2 6.6 2 10 C0.35 10 -1.3 10 -3 10 C-4 9 -4 9 -4.0625 6.4375 C-4.041875 5.633125 -4.02125 4.82875 -4 4 C-2.68 3.67 -1.36 3.34 0 3 C0 2.01 0 1.02 0 0 Z " fill="#B5B994" transform="translate(106,123)"/>
<path d="M0 0 C0.66 0 1.32 0 2 0 C2 3.3 2 6.6 2 10 C0.35 10 -1.3 10 -3 10 C-4 9 -4 9 -4.0625 6.4375 C-4.041875 5.633125 -4.02125 4.82875 -4 4 C-2.68 3.67 -1.36 3.34 0 3 C0 2.01 0 1.02 0 0 Z " fill="#B5B899" transform="translate(302,106)"/>
<path d="M0 0 C0.66 0 1.32 0 2 0 C2 3.3 2 6.6 2 10 C0.35 10 -1.3 10 -3 10 C-4 9 -4 9 -4.0625 6.4375 C-4.041875 5.633125 -4.02125 4.82875 -4 4 C-2.68 3.67 -1.36 3.34 0 3 C0 2.01 0 1.02 0 0 Z " fill="#B7B89A" transform="translate(302,89)"/>
<path d="M0 0 C0.33 1.32 0.66 2.64 1 4 C2.32 4 3.64 4 5 4 C5.33 2.68 5.66 1.36 6 0 C6 3.3 6 6.6 6 10 C5.01 10 4.02 10 3 10 C3 10.66 3 11.32 3 12 C2.34 12 1.68 12 1 12 C0.03929566 9.11788698 -0.10581883 7.30149956 -0.0625 4.3125 C-0.05347656 3.50425781 -0.04445313 2.69601563 -0.03515625 1.86328125 C-0.02355469 1.24839844 -0.01195313 0.63351563 0 0 Z " fill="#B9BBA7" transform="translate(81,73)"/>
<path d="M0 0 C1.65 0 3.3 0 5 0 C6 1 6 1 6.0625 3.5625 C6.041875 4.366875 6.02125 5.17125 6 6 C4.68 6.33 3.36 6.66 2 7 C2 7.99 2 8.98 2 10 C1.34 10 0.68 10 0 10 C0 6.7 0 3.4 0 0 Z " fill="#9D9B98" transform="translate(179,41)"/>
<path d="M0 0 C0.66 0 1.32 0 2 0 C2 3.3 2 6.6 2 10 C0.35 10 -1.3 10 -3 10 C-4 9 -4 9 -4.0625 6.4375 C-4.041875 5.633125 -4.02125 4.82875 -4 4 C-2.68 3.67 -1.36 3.34 0 3 C0 2.01 0 1.02 0 0 Z " fill="#9B9A98" transform="translate(43,38)"/>
<path d="M0 0 C0.99 0 1.98 0 3 0 C3 0.99 3 1.98 3 3 C2.01 3.495 2.01 3.495 1 4 C1.33 5.65 1.66 7.3 2 9 C1.67 8.01 1.34 7.02 1 6 C-0.32 6 -1.64 6 -3 6 C-3 5.34 -3 4.68 -3 4 C-3.99 4.495 -3.99 4.495 -5 5 C-5.65555119 7.52733235 -5.65555119 7.52733235 -6 10 C-6.66 10 -7.32 10 -8 10 C-8 7.69 -8 5.38 -8 3 C-5.36 2.67 -2.72 2.34 0 2 C0 1.34 0 0.68 0 0 Z " fill="#DBDCC7" transform="translate(103,191)"/>
<path d="M0 0 C2.0625 0.4375 2.0625 0.4375 4 1 C3.01 1 2.02 1 1 1 C1 1.66 1 2.32 1 3 C2.32 3.33 3.64 3.66 5 4 C4.67 4.99 4.34 5.98 4 7 C-1.625 7.25 -1.625 7.25 -5 5 C-4.67 3.68 -4.34 2.36 -4 1 C-3.01 1 -2.02 1 -1 1 C-0.67 0.67 -0.34 0.34 0 0 Z " fill="#C8CAAD" transform="translate(229,143)"/>
<path d="M0 0 C0.66 0 1.32 0 2 0 C2 0.66 2 1.32 2 2 C2.66 2.33 3.32 2.66 4 3 C3.34 3 2.68 3 2 3 C2 4.65 2 6.3 2 8 C2.66 8.33 3.32 8.66 4 9 C2.68 8.67 1.36 8.34 0 8 C0 6.35 0 4.7 0 3 C-1.65 3.33 -3.3 3.66 -5 4 C-5.33 5.32 -5.66 6.64 -6 8 C-4.68 8.33 -3.36 8.66 -2 9 C-3.66611905 9.042721 -5.33382885 9.04063832 -7 9 C-8 8 -8 8 -8.125 5.5 C-8 3 -8 3 -7 2 C-4.66702567 1.95907063 -2.33294775 1.95758277 0 2 C0 1.34 0 0.68 0 0 Z " fill="#8C8A8A" transform="translate(236,39)"/>
<path d="M0 0 C1.98 0 3.96 0 6 0 C6.84454356 3.37817425 7.10844919 5.67465243 6 9 C5.01 9 4.02 9 3 9 C3 7.02 3 5.04 3 3 C1.68 3 0.36 3 -1 3 C-0.67 2.01 -0.34 1.02 0 0 Z " fill="#F1EFDE" transform="translate(103,174)"/>
<path d="M0 0 C0.99 0.33 1.98 0.66 3 1 C2.01 1.495 2.01 1.495 1 2 C1.99 2.66 2.98 3.32 4 4 C3.67 5.65 3.34 7.3 3 9 C1.35 8.67 -0.3 8.34 -2 8 C-2.125 5.125 -2.125 5.125 -2 2 C-1.34 1.34 -0.68 0.68 0 0 Z " fill="#AFAF94" transform="translate(34,158)"/>
<path d="M0 0 C4.455 0.99 4.455 0.99 9 2 C5.00889681 3.9955516 3.30013434 4.19546065 -1 4 C-1.33 5.65 -1.66 7.3 -2 9 C-3.32 9 -4.64 9 -6 9 C-6 7.35 -6 5.7 -6 4 C-4.02 3.34 -2.04 2.68 0 2 C0 1.34 0 0.68 0 0 Z " fill="#FAFBE9" transform="translate(202,89)"/>
<path d="M0 0 C1.67542976 0.28604898 3.34385343 0.61781233 5 1 C5 2.65 5 4.3 5 6 C3.34385343 6.38218767 1.67542976 6.71395102 0 7 C-1 6 -1 6 -1.125 3.5 C-1 1 -1 1 0 0 Z " fill="#BBB998" transform="translate(292,194)"/>
<path d="M0 0 C1.67542976 0.28604898 3.34385343 0.61781233 5 1 C5 2.65 5 4.3 5 6 C3.34385343 6.38218767 1.67542976 6.71395102 0 7 C-1 6 -1 6 -1.125 3.5 C-1 1 -1 1 0 0 Z " fill="#B5BA9F" transform="translate(201,194)"/>
<path d="M0 0 C1.67542976 0.28604898 3.34385343 0.61781233 5 1 C5 2.65 5 4.3 5 6 C3.34385343 6.38218767 1.67542976 6.71395102 0 7 C-1 6 -1 6 -1.125 3.5 C-1 1 -1 1 0 0 Z " fill="#BAB9A0" transform="translate(285,194)"/>
<path d="M0 0 C1.67542976 0.28604898 3.34385343 0.61781233 5 1 C5 2.65 5 4.3 5 6 C3.34385343 6.38218767 1.67542976 6.71395102 0 7 C-1 6 -1 6 -1.125 3.5 C-1 1 -1 1 0 0 Z " fill="#BBB89A" transform="translate(194,194)"/>
<path d="M0 0 C1.98 0.99 3.96 1.98 6 3 C5.34 4.32 4.68 5.64 4 7 C4.66 7.33 5.32 7.66 6 8 C5.34 8 4.68 8 4 8 C4 8.99 4 9.98 4 11 C2.68 11.33 1.36 11.66 0 12 C0 11.34 0 10.68 0 10 C0.99 10 1.98 10 3 10 C2.67 9.34 2.34 8.68 2 8 C1.01 7.67 0.02 7.34 -1 7 C-0.67 4.69 -0.34 2.38 0 0 Z " fill="#F8FAF0" transform="translate(298,183)"/>
<path d="M0 0 C1.67542976 0.28604898 3.34385343 0.61781233 5 1 C5 2.65 5 4.3 5 6 C3.34385343 6.38218767 1.67542976 6.71395102 0 7 C-1 6 -1 6 -1.125 3.5 C-1 1 -1 1 0 0 Z " fill="#BBB899" transform="translate(194,160)"/>
<path d="M0 0 C1.67542976 0.28604898 3.34385343 0.61781233 5 1 C5 2.65 5 4.3 5 6 C3.34385343 6.38218767 1.67542976 6.71395102 0 7 C-1 6 -1 6 -1.125 3.5 C-1 1 -1 1 0 0 Z " fill="#878A6B" transform="translate(201,160)"/>
<path d="M0 0 C0.99 0 1.98 0 3 0 C3.33 3.3 3.66 6.6 4 10 C1.69 10 -0.62 10 -3 10 C-3.33 7.03 -3.66 4.06 -4 1 C-3.34 1 -2.68 1 -2 1 C-2 3.64 -2 6.28 -2 9 C-1.01 9 -0.02 9 1 9 C0.67 6.03 0.34 3.06 0 0 Z " fill="#9F9F83" transform="translate(285,157)"/>
<path d="M0 0 C1.67542976 0.28604898 3.34385343 0.61781233 5 1 C5 2.65 5 4.3 5 6 C3.34385343 6.38218767 1.67542976 6.71395102 0 7 C-1 6 -1 6 -1.125 3.5 C-1 1 -1 1 0 0 Z " fill="#B6B99F" transform="translate(96,143)"/>
<path d="M0 0 C0.33 0.66 0.66 1.32 1 2 C2.65 2 4.3 2 6 2 C6 2.33 6 2.66 6 3 C4.35 3 2.7 3 1 3 C1.33 5.64 1.66 8.28 2 11 C-0.31 11.66 -2.62 12.32 -5 13 C-7 11 -7 11 -7.1953125 9.0546875 C-7.13020833 7.03645833 -7.06510417 5.01822917 -7 3 C-6.67 3 -6.34 3 -6 3 C-5.67 4.98 -5.34 6.96 -5 9 C-3.35 9.33 -1.7 9.66 0 10 C0 6.7 0 3.4 0 0 Z " fill="#F7F7DB" transform="translate(108,123)"/>
<path d="M0 0 C1.67542976 0.28604898 3.34385343 0.61781233 5 1 C5 2.65 5 4.3 5 6 C3.34385343 6.38218767 1.67542976 6.71395102 0 7 C-1 6 -1 6 -1.125 3.5 C-1 1 -1 1 0 0 Z " fill="#8E8A68" transform="translate(194,126)"/>
<path d="M0 0 C1.67542976 0.28604898 3.34385343 0.61781233 5 1 C5 2.65 5 4.3 5 6 C3.34385343 6.38218767 1.67542976 6.71395102 0 7 C-1 6 -1 6 -1.125 3.5 C-1 1 -1 1 0 0 Z " fill="#B6B8A1" transform="translate(201,126)"/>
<path d="M0 0 C1.67542976 0.28604898 3.34385343 0.61781233 5 1 C5 2.65 5 4.3 5 6 C3.34385343 6.38218767 1.67542976 6.71395102 0 7 C-1 6 -1 6 -1.125 3.5 C-1 1 -1 1 0 0 Z " fill="#B8B89B" transform="translate(292,92)"/>
<path d="M0 0 C1.67542976 0.28604898 3.34385343 0.61781233 5 1 C5 2.65 5 4.3 5 6 C3.34385343 6.38218767 1.67542976 6.71395102 0 7 C-1 6 -1 6 -1.125 3.5 C-1 1 -1 1 0 0 Z " fill="#888B68" transform="translate(285,92)"/>
<path d="M0 0 C1.67542976 0.28604898 3.34385343 0.61781233 5 1 C5 2.65 5 4.3 5 6 C3.34385343 6.38218767 1.67542976 6.71395102 0 7 C-1 6 -1 6 -1.125 3.5 C-1 1 -1 1 0 0 Z " fill="#BAB898" transform="translate(194,75)"/>
<path d="M0 0 C1.67542976 0.28604898 3.34385343 0.61781233 5 1 C5 2.65 5 4.3 5 6 C3.34385343 6.38218767 1.67542976 6.71395102 0 7 C-1 6 -1 6 -1.125 3.5 C-1 1 -1 1 0 0 Z " fill="#B8B9A2" transform="translate(201,75)"/>
<path d="M0 0 C1.67542976 0.28604898 3.34385343 0.61781233 5 1 C5 2.65 5 4.3 5 6 C3.34385343 6.38218767 1.67542976 6.71395102 0 7 C-1 6 -1 6 -1.125 3.5 C-1 1 -1 1 0 0 Z " fill="#A4A6A1" transform="translate(362,41)"/>
<path d="M0 0 C1.67542976 0.28604898 3.34385343 0.61781233 5 1 C5 2.65 5 4.3 5 6 C3.34385343 6.38218767 1.67542976 6.71395102 0 7 C-1 6 -1 6 -1.125 3.5 C-1 1 -1 1 0 0 Z " fill="#A6A4A4" transform="translate(313,41)"/>
<path d="M0 0 C1.67542976 0.28604898 3.34385343 0.61781233 5 1 C5 2.65 5 4.3 5 6 C3.34385343 6.38218767 1.67542976 6.71395102 0 7 C-1 6 -1 6 -1.125 3.5 C-1 1 -1 1 0 0 Z " fill="#A8A3A4" transform="translate(271,41)"/>
<path d="M0 0 C1.67542976 0.28604898 3.34385343 0.61781233 5 1 C5 2.65 5 4.3 5 6 C3.34385343 6.38218767 1.67542976 6.71395102 0 7 C-1 6 -1 6 -1.125 3.5 C-1 1 -1 1 0 0 Z " fill="#A6A3A5" transform="translate(201,41)"/>
<path d="M0 0 C2.64 0 5.28 0 8 0 C7.01 0.66 6.02 1.32 5 2 C4.5 4.5 4.5 4.5 5 7 C5.99 7.66 6.98 8.32 8 9 C6.35 9 4.7 9 3 9 C3 8.34 3 7.68 3 7 C2.01 7 1.02 7 0 7 C0 4.69 0 2.38 0 0 Z " fill="#FBFCE6" transform="translate(196,142)"/>
<path d="M0 0 C0.66 0 1.32 0 2 0 C2.33 0.66 2.66 1.32 3 2 C3.33 1.34 3.66 0.68 4 0 C4.66 0 5.32 0 6 0 C6 2.97 6 5.94 6 9 C5.01 8.67 4.02 8.34 3 8 C2.67 7.01 2.34 6.02 2 5 C1.34 6.32 0.68 7.64 0 9 C0 6.03 0 3.06 0 0 Z " fill="#A1A28D" transform="translate(88,90)"/>
<path d="M0 0 C0.66 0 1.32 0 2 0 C2.33 0.66 2.66 1.32 3 2 C3.33 1.34 3.66 0.68 4 0 C4.66 0 5.32 0 6 0 C6 2.97 6 5.94 6 9 C5.34 9 4.68 9 4 9 C3.34 7.68 2.68 6.36 2 5 C1.34 6.32 0.68 7.64 0 9 C0 6.03 0 3.06 0 0 Z " fill="#9F9F8A" transform="translate(284,141)"/>
<path d="M0 0 C0.66 0 1.32 0 2 0 C2.33 0.66 2.66 1.32 3 2 C3.33 1.34 3.66 0.68 4 0 C4.66 0 5.32 0 6 0 C6 2.97 6 5.94 6 9 C5.34 9 4.68 9 4 9 C3.34 7.68 2.68 6.36 2 5 C1.34 6.32 0.68 7.64 0 9 C0 6.03 0 3.06 0 0 Z " fill="#A09F86" transform="translate(88,107)"/>
<path d="M0 0 C3.5625 0.25 3.5625 0.25 6.5625 2.25 C3.2625 2.58 -0.0375 2.91 -3.4375 3.25 C-3.4375 4.9 -3.4375 6.55 -3.4375 8.25 C-1.1275 8.58 1.1825 8.91 3.5625 9.25 C3.5625 9.58 3.5625 9.91 3.5625 10.25 C-2.58984375 10.34765625 -2.58984375 10.34765625 -4.4375 10.25 C-5.4375 9.25 -5.4375 9.25 -5.625 5.8125 C-5.3733098 1.03038623 -4.77828959 0.34751197 0 0 Z " fill="#F9FBE7" transform="translate(218.4375,174.75)"/>
<path d="M0 0 C1.85776765 3.13498292 2.20140476 5.37471432 2 9 C1.34 9 0.68 9 0 9 C-0.103125 8.38125 -0.20625 7.7625 -0.3125 7.125 C-0.87525373 4.63473516 -0.87525373 4.63473516 -4 3 C-2.68 2.01 -1.36 1.02 0 0 Z M-6 9 C-3.525 9.495 -3.525 9.495 -1 10 C-1.33 10.99 -1.66 11.98 -2 13 C-3.32 13 -4.64 13 -6 13 C-6 11.68 -6 10.36 -6 9 Z " fill="#F9FAE8" transform="translate(38,157)"/>
<path d="M0 0 C1.32 0 2.64 0 4 0 C4.33 0.99 4.66 1.98 5 3 C4.01 3.495 4.01 3.495 3 4 C3 5.65 3 7.3 3 9 C1.68 9 0.36 9 -1 9 C-0.67 6.03 -0.34 3.06 0 0 Z " fill="#DEE0C4" transform="translate(284,72)"/>
<path d="M0 0 C0.22429687 0.64453125 0.44859375 1.2890625 0.6796875 1.953125 C1.82889456 4.24388852 1.82889456 4.24388852 4.3828125 4.609375 C5.74019531 4.67898437 5.74019531 4.67898437 7.125 4.75 C8.03507813 4.80671875 8.94515625 4.8634375 9.8828125 4.921875 C10.58148438 4.94765625 11.28015625 4.9734375 12 5 C11.67 5.99 11.34 6.98 11 8 C9.56138706 7.91253716 8.12402492 7.80434652 6.6875 7.6875 C5.88699219 7.62949219 5.08648437 7.57148438 4.26171875 7.51171875 C1.60895044 6.91152419 0.6132446 6.16514407 -1 4 C-0.6875 1.8125 -0.6875 1.8125 0 0 Z " fill="#FAFAE6" transform="translate(199,162)"/>
<path d="M0 0 C1.65 0 3.3 0 5 0 C4.01 0.33 3.02 0.66 2 1 C2 1.99 2 2.98 2 4 C3.32 4.33 4.64 4.66 6 5 C6 5.99 6 6.98 6 8 C4.02 8.33 2.04 8.66 0 9 C0 6 0 3 0 0 Z " fill="#ACB08C" transform="translate(368,124)"/>
<path d="M0 0 C1.65 0 3.3 0 5 0 C4.01 0.33 3.02 0.66 2 1 C2 1.99 2 2.98 2 4 C3.32 4.33 4.64 4.66 6 5 C6 5.99 6 6.98 6 8 C4.02 8.33 2.04 8.66 0 9 C0.66 8.67 1.32 8.34 2 8 C1.34 7.01 0.68 6.02 0 5 C-0.125 2.3125 -0.125 2.3125 0 0 Z " fill="#ADB087" transform="translate(361,158)"/>
<path d="M0 0 C2.55488699 2.55488699 2 3.53111409 2 7 C2.66 7.66 3.32 8.32 4 9 C0.625 9.625 0.625 9.625 -3 10 C-5 8 -5 8 -5.125 5.375 C-5.08375 4.59125 -5.0425 3.8075 -5 3 C-4.01 2.67 -3.02 2.34 -2 2 C-2 3.98 -2 5.96 -2 8 C-1.34 8 -0.68 8 0 8 C-0.2784375 6.2984375 -0.2784375 6.2984375 -0.5625 4.5625 C-0.706875 3.386875 -0.85125 2.21125 -1 1 C-0.67 0.67 -0.34 0.34 0 0 Z " fill="#EEF3E1" transform="translate(213,142)"/>
<path d="M0 0 C0.66 0.33 1.32 0.66 2 1 C2.05389087 2.95803507 2.09274217 4.91648909 2.125 6.875 C2.14820313 7.96554688 2.17140625 9.05609375 2.1953125 10.1796875 C2 13 2 13 0 15 C-1.87824891 13.12175109 -1.39102397 9.96064724 -1.5625 7.4375 C-1.64628906 6.23996094 -1.73007812 5.04242188 -1.81640625 3.80859375 C-1.87699219 2.88175781 -1.93757813 1.95492187 -2 1 C-1.34 0.67 -0.68 0.34 0 0 Z " fill="#F6F6E3" transform="translate(283,138)"/>
<path d="M0 0 C0.66 0 1.32 0 2 0 C2.625 3.375 2.625 3.375 3 7 C2.34 7.66 1.68 8.32 1 9 C1 8.34 1 7.68 1 7 C-0.65 7 -2.3 7 -4 7 C-2.92598892 4.08482708 -2.22189824 2.22189824 0 0 Z " fill="#A4A588" transform="translate(35,124)"/>
<path d="M0 0 C-0.33 0.99 -0.66 1.98 -1 3 C-2.32 3 -3.64 3 -5 3 C-5 3.66 -5 4.32 -5 5 C-3.68 5.33 -2.36 5.66 -1 6 C-1.99 6 -2.98 6 -4 6 C-4 6.66 -4 7.32 -4 8 C-4.99 7.67 -5.98 7.34 -7 7 C-6.74438677 4.6568787 -6.40729228 2.32156597 -6 0 C-3.50907189 -1.24546405 -2.58919267 -0.7767578 0 0 Z " fill="#8B8989" transform="translate(234,8)"/>
<path d="M0 0 C1.65 0.33 3.3 0.66 5 1 C5 2.98 5 4.96 5 7 C3.02 7 1.04 7 -1 7 C-0.67 5.68 -0.34 4.36 0 3 C0.99 3 1.98 3 3 3 C3 2.34 3 1.68 3 1 C2.01 0.67 1.02 0.34 0 0 Z " fill="#9FA279" transform="translate(180,177)"/>
<path d="M0 0 C1.98 0 3.96 0 6 0 C6 2.31 6 4.62 6 7 C4.02 7 2.04 7 0 7 C0 4.69 0 2.38 0 0 Z " fill="#9E9B6F" transform="translate(95,160)"/>
<path d="M0 0 C1.98 0 3.96 0 6 0 C6 2.31 6 4.62 6 7 C4.02 7 2.04 7 0 7 C0 4.69 0 2.38 0 0 Z " fill="#9D9974" transform="translate(102,160)"/>
<path d="M0 0 C1.65 0.33 3.3 0.66 5 1 C5 2.98 5 4.96 5 7 C3.02 7 1.04 7 -1 7 C-0.67 5.68 -0.34 4.36 0 3 C0.99 3 1.98 3 3 3 C3 2.34 3 1.68 3 1 C2.01 0.67 1.02 0.34 0 0 Z " fill="#A0A37C" transform="translate(180,143)"/>
<path d="M0 0 C0.33 0 0.66 0 1 0 C1 2.64 1 5.28 1 8 C1.99 8.33 2.98 8.66 4 9 C3.67 9.99 3.34 10.98 3 12 C-1.875 10.25 -1.875 10.25 -3 8 C-2.44140625 6.0546875 -2.44140625 6.0546875 -1.5625 3.875 C-1.27503906 3.15054688 -0.98757812 2.42609375 -0.69140625 1.6796875 C-0.46324219 1.12539062 -0.23507813 0.57109375 0 0 Z " fill="#FDFEE4" transform="translate(208,124)"/>
<path d="M0 0 C1.65 0.33 3.3 0.66 5 1 C5 2.98 5 4.96 5 7 C3.02 7 1.04 7 -1 7 C-0.67 5.68 -0.34 4.36 0 3 C0.99 3 1.98 3 3 3 C3 2.34 3 1.68 3 1 C2.01 0.67 1.02 0.34 0 0 Z " fill="#9EA173" transform="translate(292,109)"/>
<path d="M0 0 C1.65 0.33 3.3 0.66 5 1 C5 2.98 5 4.96 5 7 C3.02 7 1.04 7 -1 7 C-0.67 5.68 -0.34 4.36 0 3 C0.99 3 1.98 3 3 3 C3 2.34 3 1.68 3 1 C2.01 0.67 1.02 0.34 0 0 Z " fill="#9FA17A" transform="translate(180,109)"/>
<path d="M0 0 C1.98 0 3.96 0 6 0 C6 2.31 6 4.62 6 7 C4.02 7 2.04 7 0 7 C0 4.69 0 2.38 0 0 Z " fill="#A09B71" transform="translate(95,75)"/>
<path d="M0 0 C1.98 0 3.96 0 6 0 C6 2.31 6 4.62 6 7 C4.02 7 2.04 7 0 7 C0 4.69 0 2.38 0 0 Z " fill="#9C9974" transform="translate(102,75)"/>
<path d="M0 0 C1.67542976 0.28604898 3.34385343 0.61781233 5 1 C5 1.99 5 2.98 5 4 C3.68 4 2.36 4 1 4 C1 4.66 1 5.32 1 6 C2.32 6.33 3.64 6.66 5 7 C3.33388095 7.042721 1.66617115 7.04063832 0 7 C-1 6 -1 6 -1.125 3.5 C-1 1 -1 1 0 0 Z " fill="#8D8E8D" transform="translate(222,41)"/>
<path d="M0 0 C1.67542976 0.28604898 3.34385343 0.61781233 5 1 C5 1.99 5 2.98 5 4 C3.68 4 2.36 4 1 4 C1 4.66 1 5.32 1 6 C2.32 6.33 3.64 6.66 5 7 C3.33388095 7.042721 1.66617115 7.04063832 0 7 C-1 6 -1 6 -1.125 3.5 C-1 1 -1 1 0 0 Z " fill="#8B8C8E" transform="translate(187,41)"/>
<path d="M0 0 C1.65 0.33 3.3 0.66 5 1 C5.042721 2.66611905 5.04063832 4.33382885 5 6 C4 7 4 7 1.4375 7.0625 C0.2309375 7.0315625 0.2309375 7.0315625 -1 7 C-0.67 5.68 -0.34 4.36 0 3 C0.99 3 1.98 3 3 3 C3 2.34 3 1.68 3 1 C2.01 0.67 1.02 0.34 0 0 Z " fill="#9EA07D" transform="translate(89,160)"/>
<path d="M0 0 C1.67542976 0.28604898 3.34385343 0.61781233 5 1 C5 1.99 5 2.98 5 4 C3.68 4.33 2.36 4.66 1 5 C2.32 5.66 3.64 6.32 5 7 C3.33388095 7.042721 1.66617115 7.04063832 0 7 C-1 6 -1 6 -1.125 3.5 C-1 1 -1 1 0 0 Z " fill="#9EA078" transform="translate(110,160)"/>
<path d="M0 0 C0.66 0 1.32 0 2 0 C2.625 3.375 2.625 3.375 3 7 C2.34 7.66 1.68 8.32 1 9 C1 8.34 1 7.68 1 7 C-0.32 7 -1.64 7 -3 7 C-2.38722388 4.03824877 -1.74627478 2.61941217 0 0 Z " fill="#A4A186" transform="translate(357,90)"/>
<path d="M0 0 C0.66 0 1.32 0 2 0 C2.33 1.65 2.66 3.3 3 5 C3.33 3.35 3.66 1.7 4 0 C4.66 0 5.32 0 6 0 C6 2.31 6 4.62 6 7 C4.33388095 7.042721 2.66617115 7.04063832 1 7 C0 6 0 6 -0.0625 2.9375 C-0.041875 1.968125 -0.02125 0.99875 0 0 Z " fill="#88808A" transform="translate(368,41)"/>
<path d="M0 0 C0.99 0.33 1.98 0.66 3 1 C3 2.98 3 4.96 3 7 C1.68 7.33 0.36 7.66 -1 8 C-1.04241723 5.66705225 -1.04092937 3.33297433 -1 1 C-0.67 0.67 -0.34 0.34 0 0 Z " fill="#FDFDF2" transform="translate(107,192)"/>
<path d="M0 0 C1.65 0.33 3.3 0.66 5 1 C5 2.65 5 4.3 5 6 C3.35 6.33 1.7 6.66 0 7 C0 5.68 0 4.36 0 3 C0.99 3 1.98 3 3 3 C3 2.34 3 1.68 3 1 C2.01 0.67 1.02 0.34 0 0 Z " fill="#9EA079" transform="translate(96,177)"/>
<path d="M0 0 C1.98 0.495 1.98 0.495 4 1 C3.01 2.485 3.01 2.485 2 4 C2.99 4.33 3.98 4.66 5 5 C4.67 6.32 4.34 7.64 4 9 C2.35 9 0.7 9 -1 9 C0.32 8.67 1.64 8.34 3 8 C3 7.01 3 6.02 3 5 C1.68 4.67 0.36 4.34 -1 4 C-0.67 2.68 -0.34 1.36 0 0 Z " fill="#9B9D7A" transform="translate(68,124)"/>
<path d="M0 0 C0.99 0 1.98 0 3 0 C3 2.97 3 5.94 3 9 C3.66 9.33 4.32 9.66 5 10 C3.02 10 1.04 10 -1 10 C-0.34 9.67 0.32 9.34 1 9 C1 7.35 1 5.7 1 4 C0.34 3.67 -0.32 3.34 -1 3 C-0.67 2.01 -0.34 1.02 0 0 Z " fill="#A5AB88" transform="translate(103,89)"/>
<path d="M0 0 C1.65 0.33 3.3 0.66 5 1 C5 2.65 5 4.3 5 6 C3.35 6.33 1.7 6.66 0 7 C0 5.68 0 4.36 0 3 C0.99 3 1.98 3 3 3 C3 2.34 3 1.68 3 1 C2.01 0.67 1.02 0.34 0 0 Z " fill="#9D9E7A" transform="translate(96,92)"/>
<path d="M0 0 C2 2 2 2 2.4375 5 C2.623125 5.99 2.80875 6.98 3 8 C3.99 8.66 4.98 9.32 6 10 C5.01 10.495 5.01 10.495 4 11 C1.875 10.0625 1.875 10.0625 0 9 C0 7.68 0 6.36 0 5 C-0.99 4.67 -1.98 4.34 -3 4 C-3 3.01 -3 2.02 -3 1 C-2.01 0.67 -1.02 0.34 0 0 Z " fill="#F5F4E2" transform="translate(366,90)"/>
<path d="M0 0 C1.32 0 2.64 0 4 0 C4 2.31 4 4.62 4 7 C2.35 6.67 0.7 6.34 -1 6 C-0.67 4.02 -0.34 2.04 0 0 Z " fill="#B0ADAA" transform="translate(181,7)"/>
<path d="M0 0 C0.66 0 1.32 0 2 0 C4.35953094 2.35953094 4.49141413 3.77895617 5 7 C2 8 2 8 -0.1875 7.0625 C-0.785625 6.711875 -1.38375 6.36125 -2 6 C-1.49396008 3.83125748 -1.00016187 2.00032373 0 0 Z " fill="#F7F9F4" transform="translate(202,8)"/>
<path d="M0 0 C0.66 0 1.32 0 2 0 C2 1.98 2 3.96 2 6 C2.66 6.33 3.32 6.66 4 7 C3.67 7.99 3.34 8.98 3 10 C2.34 10 1.68 10 1 10 C-1.29404844 6.55892734 -1.26293056 5.03160191 -1 1 C-0.67 0.67 -0.34 0.34 0 0 Z " fill="#ECF3E6" transform="translate(209,178)"/>
<path d="M0 0 C0.99 0 1.98 0 3 0 C3 0.99 3 1.98 3 3 C3.66 3 4.32 3 5 3 C5 3.99 5 4.98 5 6 C4.34 6 3.68 6 3 6 C2.67 6.99 2.34 7.98 2 9 C1.34 9 0.68 9 0 9 C0 6.03 0 3.06 0 0 Z " fill="#B2B59A" transform="translate(276,158)"/>
<path d="M0 0 C1.65 0 3.3 0 5 0 C4.01 0.33 3.02 0.66 2 1 C2 1.66 2 2.32 2 3 C2.99 3.33 3.98 3.66 5 4 C5 4.99 5 5.98 5 7 C3.35 7 1.7 7 0 7 C0 4.69 0 2.38 0 0 Z " fill="#B2B48D" transform="translate(228,109)"/>
<path d="M0 0 C1.65 0 3.3 0 5 0 C4.01 0.33 3.02 0.66 2 1 C2 1.99 2 2.98 2 4 C3.32 4.33 4.64 4.66 6 5 C5.67 6.32 5.34 7.64 5 9 C3.35 9 1.7 9 0 9 C1.32 7.68 2.64 6.36 4 5 C2.68 5 1.36 5 0 5 C0 3.35 0 1.7 0 0 Z " fill="#9B9E79" transform="translate(361,90)"/>
<path d="M0 0 C0.66 0 1.32 0 2 0 C2 0.66 2 1.32 2 2 C3.65 2 5.3 2 7 2 C6.67 2.66 6.34 3.32 6 4 C4.68 3.67 3.36 3.34 2 3 C2 4.65 2 6.3 2 8 C2.99 8.33 3.98 8.66 5 9 C3.35 8.67 1.7 8.34 0 8 C0 6.35 0 4.7 0 3 C-0.66 2.67 -1.32 2.34 -2 2 C-1.34 2 -0.68 2 0 2 C0 1.34 0 0.68 0 0 Z " fill="#878082" transform="translate(166,39)"/>
<path d="M0 0 C0.99 0 1.98 0 3 0 C3 2.64 3 5.28 3 8 C3.66 8.33 4.32 8.66 5 9 C3.02 9 1.04 9 -1 9 C-0.34 8.67 0.32 8.34 1 8 C1 6.35 1 4.7 1 3 C0.34 3 -0.32 3 -1 3 C-0.67 2.01 -0.34 1.02 0 0 Z " fill="#A3A085" transform="translate(362,192)"/>
<path d="M0 0 C1.98 0.495 1.98 0.495 4 1 C3.01 1 2.02 1 1 1 C1 1.66 1 2.32 1 3 C2.32 3 3.64 3 5 3 C5.33 2.34 5.66 1.68 6 1 C6 2.65 6 4.3 6 6 C3.69 6.33 1.38 6.66 -1 7 C0.32 6.67 1.64 6.34 3 6 C3 5.34 3 4.68 3 4 C1.68 3.67 0.36 3.34 -1 3 C-0.67 2.01 -0.34 1.02 0 0 Z " fill="#A6A781" transform="translate(285,126)"/>
<path d="M0 0 C1.2065625 0.0309375 1.2065625 0.0309375 2.4375 0.0625 C1.4475 0.7225 0.4575 1.3825 -0.5625 2.0625 C-0.5625 2.7225 -0.5625 3.3825 -0.5625 4.0625 C0.4275 4.3925 1.4175 4.7225 2.4375 5.0625 C2.4375 5.7225 2.4375 6.3825 2.4375 7.0625 C1.1175 7.0625 -0.2025 7.0625 -1.5625 7.0625 C-1.5625 7.7225 -1.5625 8.3825 -1.5625 9.0625 C-3.5625 8.0625 -3.5625 8.0625 -4.5625 6.0625 C-3.9025 6.0625 -3.2425 6.0625 -2.5625 6.0625 C-2.8409375 4.8559375 -2.8409375 4.8559375 -3.125 3.625 C-3.269375 2.779375 -3.41375 1.93375 -3.5625 1.0625 C-2.5625 0.0625 -2.5625 0.0625 0 0 Z " fill="#F7FCDD" transform="translate(117.5625,107.9375)"/>
<path d="M0 0 C0.66 0 1.32 0 2 0 C2 2.97 2 5.94 2 9 C1.34 9 0.68 9 0 9 C0 7.35 0 5.7 0 4 C-2.51083114 5.25541557 -2.87125446 6.50063488 -4 9 C-4 7.35 -4 5.7 -4 4 C-2.68 3.67 -1.36 3.34 0 3 C0 2.01 0 1.02 0 0 Z " fill="#787782" transform="translate(288,38)"/>
<path d="M0 0 C0.66 0.66 1.32 1.32 2 2 C4.06874034 2.6425235 4.06874034 2.6425235 6 3 C6 3.66 6 4.32 6 5 C3.09399739 6.25664978 1.20395416 7 -2 7 C-2 6.01 -2 5.02 -2 4 C-1.34 4 -0.68 4 0 4 C0 2.68 0 1.36 0 0 Z " fill="#FCFBE5" transform="translate(276,198)"/>
<path d="M0 0 C0.33 0 0.66 0 1 0 C1 1.98 1 3.96 1 6 C3.475 6.99 3.475 6.99 6 8 C6 8.66 6 9.32 6 10 C4.68 10.33 3.36 10.66 2 11 C2 9.68 2 8.36 2 7 C0.68 7.33 -0.64 7.66 -2 8 C-2 7.34 -2 6.68 -2 6 C-1.34 6 -0.68 6 0 6 C0 4.02 0 2.04 0 0 Z " fill="#FAFAE6" transform="translate(106,161)"/>
<path d="M0 0 C0.66 0 1.32 0 2 0 C2.33 1.98 2.66 3.96 3 6 C0 8 0 8 -3.1875 7.625 C-4.115625 7.41875 -5.04375 7.2125 -6 7 C-6 6.67 -6 6.34 -6 6 C-4.35 5.67 -2.7 5.34 -1 5 C-0.67 3.35 -0.34 1.7 0 0 Z " fill="#FAFBED" transform="translate(192,144)"/>
<path d="M0 0 C0.33 0 0.66 0 1 0 C1 2.31 1 4.62 1 7 C-1 7 -3 7 -5 7 C-5 5.02 -5 3.04 -5 1 C-3.68 1.33 -2.36 1.66 -1 2 C-0.67 1.34 -0.34 0.68 0 0 Z " fill="#A0A18D" transform="translate(303,143)"/>
<path d="M0 0 C0.66 1.32 1.32 2.64 2 4 C3.32 4 4.64 4 6 4 C6.66 2.68 7.32 1.36 8 0 C8.103125 0.639375 8.20625 1.27875 8.3125 1.9375 C8.6528125 2.9584375 8.6528125 2.9584375 9 4 C9.99 4.33 10.98 4.66 12 5 C11.67 5.66 11.34 6.32 11 7 C9.35369672 6.85957123 7.70795821 6.71250671 6.0625 6.5625 C4.68771484 6.44068359 4.68771484 6.44068359 3.28515625 6.31640625 C1 6 1 6 0 5 C-0.04063832 3.33382885 -0.042721 1.66611905 0 0 Z " fill="#F4F2DC" transform="translate(192,77)"/>
<path d="M0 0 C0.33 0 0.66 0 1 0 C1.33 2.64 1.66 5.28 2 8 C5.63 8.33 9.26 8.66 13 9 C13 9.33 13 9.66 13 10 C8.38 10 3.76 10 -1 10 C-0.67 6.7 -0.34 3.4 0 0 Z " fill="#F2F1DA" transform="translate(276,175)"/>
<path d="M0 0 C0.66 0 1.32 0 2 0 C2 0.66 2 1.32 2 2 C2.99 2.33 3.98 2.66 5 3 C4.01 3 3.02 3 2 3 C2 4.65 2 6.3 2 8 C2.99 8.33 3.98 8.66 5 9 C3.35 8.67 1.7 8.34 0 8 C0 6.35 0 4.7 0 3 C-0.66 2.67 -1.32 2.34 -2 2 C-1.34 2 -0.68 2 0 2 C0 1.34 0 0.68 0 0 Z " fill="#9D9D73" transform="translate(194,175)"/>
<path d="M0 0 C0.66 0 1.32 0 2 0 C2 0.66 2 1.32 2 2 C2.99 2.33 3.98 2.66 5 3 C4.01 3 3.02 3 2 3 C2 4.65 2 6.3 2 8 C2.99 8.33 3.98 8.66 5 9 C3.35 8.67 1.7 8.34 0 8 C0 6.35 0 4.7 0 3 C-0.66 2.67 -1.32 2.34 -2 2 C-1.34 2 -0.68 2 0 2 C0 1.34 0 0.68 0 0 Z " fill="#9D9D74" transform="translate(194,141)"/>
<path d="M0 0 C0.66 0 1.32 0 2 0 C2.66 2.31 3.32 4.62 4 7 C3.01 7.495 3.01 7.495 2 8 C0.4375 6.8125 0.4375 6.8125 -1 5 C-0.6875 2.3125 -0.6875 2.3125 0 0 Z " fill="#DDDABA" transform="translate(363,142)"/>
<path d="M0 0 C1.98 0.495 1.98 0.495 4 1 C3.79375 1.94875 3.5875 2.8975 3.375 3.875 C3.25125 4.90625 3.1275 5.9375 3 7 C3.66 7.66 4.32 8.32 5 9 C3.02 9 1.04 9 -1 9 C-0.690625 8.4225 -0.38125 7.845 -0.0625 7.25 C0.92583364 5.15705816 1.5168613 3.25464725 2 1 C1.34 0.67 0.68 0.34 0 0 Z " fill="#999C73" transform="translate(362,124)"/>
<path d="M0 0 C2.0625 0.4375 2.0625 0.4375 4 1 C4.33 2.65 4.66 4.3 5 6 C1.25 7.125 1.25 7.125 -1 6 C-1.042721 4.33388095 -1.04063832 2.66617115 -1 1 C-0.67 0.67 -0.34 0.34 0 0 Z " fill="#FAFADE" transform="translate(67,128)"/>
<path d="M0 0 C0 2.64 0 5.28 0 8 C0.66 8.33 1.32 8.66 2 9 C0.02 9 -1.96 9 -4 9 C-3.34 8.67 -2.68 8.34 -2 8 C-2.65585189 4.39007621 -2.65585189 4.39007621 -4 1 C-2 0 -2 0 0 0 Z " fill="#9F9C7A" transform="translate(358,107)"/>
<path d="M0 0 C0.99 0 1.98 0 3 0 C3 1.98 3 3.96 3 6 C1.68 6.33 0.36 6.66 -1 7 C-0.67 4.69 -0.34 2.38 0 0 Z " fill="#FEFCF0" transform="translate(107,108)"/>
<path d="M0 0 C4.42857143 5.14285714 4.42857143 5.14285714 5 9 C4.01 9.66 3.02 10.32 2 11 C1.34 10.67 0.68 10.34 0 10 C0 6.7 0 3.4 0 0 Z " fill="#F2F2E1" transform="translate(87,90)"/>
<path d="M0 0 C0.66 0 1.32 0 2 0 C2 0.66 2 1.32 2 2 C2.99 2.33 3.98 2.66 5 3 C4.01 3 3.02 3 2 3 C2 4.65 2 6.3 2 8 C2.99 8.33 3.98 8.66 5 9 C3.35 8.67 1.7 8.34 0 8 C0 6.35 0 4.7 0 3 C-0.66 2.67 -1.32 2.34 -2 2 C-1.34 2 -0.68 2 0 2 C0 1.34 0 0.68 0 0 Z " fill="#9D9E71" transform="translate(194,90)"/>
<path d="M0 0 C0.66 0 1.32 0 2 0 C2 0.66 2 1.32 2 2 C2.99 2.33 3.98 2.66 5 3 C4.01 3 3.02 3 2 3 C2 4.65 2 6.3 2 8 C2.99 8.33 3.98 8.66 5 9 C3.35 8.67 1.7 8.34 0 8 C0 6.35 0 4.7 0 3 C-0.66 2.67 -1.32 2.34 -2 2 C-1.34 2 -0.68 2 0 2 C0 1.34 0 0.68 0 0 Z " fill="#999E77" transform="translate(299,73)"/>
<path d="M0 0 C2.97 0.495 2.97 0.495 6 1 C6 2.65 6 4.3 6 6 C4.68 6.33 3.36 6.66 2 7 C1.34 4.69 0.68 2.38 0 0 Z " fill="#D8D4D0" transform="translate(93,41)"/>
<path d="M0 0 C0.66 0 1.32 0 2 0 C2 0.66 2 1.32 2 2 C2.99 2.33 3.98 2.66 5 3 C4.01 3 3.02 3 2 3 C2 4.65 2 6.3 2 8 C2.99 8.33 3.98 8.66 5 9 C3.35 8.67 1.7 8.34 0 8 C0 6.35 0 4.7 0 3 C-0.66 2.67 -1.32 2.34 -2 2 C-1.34 2 -0.68 2 0 2 C0 1.34 0 0.68 0 0 Z " fill="#828081" transform="translate(299,39)"/>
<path d="M0 0 C1.32 0.33 2.64 0.66 4 1 C3.67 2.65 3.34 4.3 3 6 C2.01 6.33 1.02 6.66 0 7 C0 4.69 0 2.38 0 0 Z " fill="#F2F6E0" transform="translate(89,193)"/>
<path d="M0 0 C0.66 0 1.32 0 2 0 C2.66 2.31 3.32 4.62 4 7 C3.01 7.495 3.01 7.495 2 8 C0.4375 6.8125 0.4375 6.8125 -1 5 C-0.6875 2.3125 -0.6875 2.3125 0 0 Z " fill="#DEDCB7" transform="translate(363,176)"/>
<path d="M0 0 C1.67542976 0.28604898 3.34385343 0.61781233 5 1 C5 1.99 5 2.98 5 4 C3.35 4 1.7 4 0 4 C-0.33 4.66 -0.66 5.32 -1 6 C-1.042721 4.33388095 -1.04063832 2.66617115 -1 1 C-0.67 0.67 -0.34 0.34 0 0 Z " fill="#A4A57F" transform="translate(292,177)"/>
<path d="M0 0 C1.65 0 3.3 0 5 0 C4.01 0.33 3.02 0.66 2 1 C2 1.99 2 2.98 2 4 C2.99 4.33 3.98 4.66 5 5 C4.01 5 3.02 5 2 5 C2 6.32 2 7.64 2 9 C1.34 9 0.68 9 0 9 C0 6.03 0 3.06 0 0 Z " fill="#9B9E7B" transform="translate(172,175)"/>
<path d="M0 0 C0.763125 0.20625 1.52625 0.4125 2.3125 0.625 C2.3125 1.285 2.3125 1.945 2.3125 2.625 C0.3325 2.625 -1.6475 2.625 -3.6875 2.625 C-3.6875 4.275 -3.6875 5.925 -3.6875 7.625 C-4.0175 7.625 -4.3475 7.625 -4.6875 7.625 C-5.0175 5.645 -5.3475 3.665 -5.6875 1.625 C-2.6875 -0.375 -2.6875 -0.375 0 0 Z " fill="#FCFEEB" transform="translate(175.6875,172.375)"/>
<path d="M0 0 C0.66 0 1.32 0 2 0 C2 0.66 2 1.32 2 2 C2.99 2.33 3.98 2.66 5 3 C4.01 3 3.02 3 2 3 C2 4.65 2 6.3 2 8 C2.99 8.33 3.98 8.66 5 9 C3.35 8.67 1.7 8.34 0 8 C-1.125 2.25 -1.125 2.25 0 0 Z " fill="#999C76" transform="translate(299,158)"/>
<path d="M0 0 C0.66 0 1.32 0 2 0 C2 0.66 2 1.32 2 2 C2.66 2.33 3.32 2.66 4 3 C3.34 3 2.68 3 2 3 C2 4.65 2 6.3 2 8 C2.99 8.33 3.98 8.66 5 9 C3.35 8.67 1.7 8.34 0 8 C0 6.35 0 4.7 0 3 C-0.66 2.67 -1.32 2.34 -2 2 C-1.34 2 -0.68 2 0 2 C0 1.34 0 0.68 0 0 Z " fill="#9D9F72" transform="translate(110,141)"/>
<path d="M0 0 C1.65 0 3.3 0 5 0 C4.01 0.33 3.02 0.66 2 1 C2 1.99 2 2.98 2 4 C2.99 4.33 3.98 4.66 5 5 C4.01 5 3.02 5 2 5 C2 6.32 2 7.64 2 9 C1.34 9 0.68 9 0 9 C0 6.03 0 3.06 0 0 Z " fill="#9C9E7A" transform="translate(172,141)"/>
<path d="M0 0 C0.66 0 1.32 0 2 0 C2 0.66 2 1.32 2 2 C2.99 2.33 3.98 2.66 5 3 C4.01 3 3.02 3 2 3 C2 4.65 2 6.3 2 8 C2.99 8.33 3.98 8.66 5 9 C3.35 8.67 1.7 8.34 0 8 C-1.125 2.25 -1.125 2.25 0 0 Z " fill="#9D9B70" transform="translate(194,107)"/>
<path d="M0 0 C1.65 0 3.3 0 5 0 C4.01 0.33 3.02 0.66 2 1 C2 1.99 2 2.98 2 4 C2.99 4.33 3.98 4.66 5 5 C4.01 5 3.02 5 2 5 C2 6.32 2 7.64 2 9 C1.34 9 0.68 9 0 9 C0 6.03 0 3.06 0 0 Z " fill="#9D9F7C" transform="translate(172,107)"/>
<path d="M0 0 C1.65 0 3.3 0 5 0 C4.01 0.33 3.02 0.66 2 1 C2 1.99 2 2.98 2 4 C2.99 4.33 3.98 4.66 5 5 C4.01 5 3.02 5 2 5 C2 6.32 2 7.64 2 9 C1.34 9 0.68 9 0 9 C0 6.03 0 3.06 0 0 Z " fill="#9CA075" transform="translate(172,90)"/>
<path d="M0 0 C0.33 2.97 0.66 5.94 1 9 C-0.65 9 -2.3 9 -4 9 C-3.34 8.67 -2.68 8.34 -2 8 C-2.65585189 4.39007621 -2.65585189 4.39007621 -4 1 C-2 0 -2 0 0 0 Z " fill="#9B9C79" transform="translate(36,73)"/>
<path d="M0 0 C0.66 0.99 1.32 1.98 2 3 C1.01 3.33 0.02 3.66 -1 4 C0.485 4.99 0.485 4.99 2 6 C1.67 7.65 1.34 9.3 1 11 C0.34 11 -0.32 11 -1 11 C-2.25 3.375 -2.25 3.375 0 0 Z " fill="#FAF9DF" transform="translate(362,70)"/>
<path d="M0 0 C0.66 0 1.32 0 2 0 C2 0.66 2 1.32 2 2 C2.99 2.33 3.98 2.66 5 3 C4.01 3 3.02 3 2 3 C2 4.65 2 6.3 2 8 C2.99 8.33 3.98 8.66 5 9 C3.35 8.67 1.7 8.34 0 8 C-1.125 2.25 -1.125 2.25 0 0 Z " fill="#7F8081" transform="translate(383,39)"/>
<path d="M0 0 C1.65 0 3.3 0 5 0 C3.68 0.33 2.36 0.66 1 1 C1 3.64 1 6.28 1 9 C0.34 9 -0.32 9 -1 9 C-1.80967438 6.08517222 -2.21845993 4.53886783 -1.0625 1.6875 C-0.711875 1.130625 -0.36125 0.57375 0 0 Z " fill="#FDFEE2" transform="translate(87,140)"/>
<path d="M0 0 C1.1875 1.5625 1.1875 1.5625 2 4 C0.625 7.75 0.625 7.75 -1 11 C-2.23825459 7.28523623 -1.70587257 4.81171187 -1 1 C-0.67 0.67 -0.34 0.34 0 0 Z " fill="#F6F8F1" transform="translate(39,122)"/>
<path d="M0 0 C1.32 0 2.64 0 4 0 C3.79375 1.11375 3.5875 2.2275 3.375 3.375 C3.25125 4.57125 3.1275 5.7675 3 7 C3.66 7.66 4.32 8.32 5 9 C3.02 9 1.04 9 -1 9 C0.33333333 6.33333333 1.66666667 3.66666667 3 1 C2.01 0.67 1.02 0.34 0 0 Z " fill="#92926E" transform="translate(33,90)"/>
<path d="M0 0 C1.65 0 3.3 0 5 0 C5 1.32 5 2.64 5 4 C4.01 4.33 3.02 4.66 2 5 C2 5.99 2 6.98 2 8 C1.34 8 0.68 8 0 8 C0 5.36 0 2.72 0 0 Z " fill="#F7F6D0" transform="translate(94,91)"/>
<path d="M0 0 C1.32 0 2.64 0 4 0 C4.33 1.98 4.66 3.96 5 6 C3.35 5.67 1.7 5.34 0 5 C0 3.35 0 1.7 0 0 Z " fill="#F3F8EF" transform="translate(168,42)"/>
<path d="M0 0 C1.32 0 2.64 0 4 0 C4.33 1.98 4.66 3.96 5 6 C4.34 6 3.68 6 3 6 C3 5.34 3 4.68 3 4 C2.34 4 1.68 4 1 4 C1.33 4.99 1.66 5.98 2 7 C1.01 7 0.02 7 -1 7 C-0.67 5.68 -0.34 4.36 0 3 C0.99 3 1.98 3 3 3 C3 2.34 3 1.68 3 1 C2.01 0.67 1.02 0.34 0 0 Z " fill="#7F7873" transform="translate(348,41)"/>
<path d="M0 0 C0.99 0 1.98 0 3 0 C3 1.65 3 3.3 3 5 C1.02 5.99 1.02 5.99 -1 7 C-0.67 4.69 -0.34 2.38 0 0 Z " fill="#F6F4EE" transform="translate(174,6)"/>
<path d="M0 0 C1.65 0.33 3.3 0.66 5 1 C5 1.99 5 2.98 5 4 C3.02 4 1.04 4 -1 4 C-0.67 2.68 -0.34 1.36 0 0 Z " fill="#B4B38E" transform="translate(33,192)"/>
<path d="M0 0 C1.98 0 3.96 0 6 0 C5.67 0.99 5.34 1.98 5 3 C4.34 2.67 3.68 2.34 3 2 C2.67 3.65 2.34 5.3 2 7 C1.34 7 0.68 7 0 7 C0 4.69 0 2.38 0 0 Z " fill="#A2A385" transform="translate(221,177)"/>
<path d="M0 0 C1.98 0 3.96 0 6 0 C5.67 0.99 5.34 1.98 5 3 C4.34 2.67 3.68 2.34 3 2 C2.67 3.65 2.34 5.3 2 7 C1.34 7 0.68 7 0 7 C0 4.69 0 2.38 0 0 Z " fill="#A5A67E" transform="translate(116,160)"/>
<path d="M0 0 C1.98 0 3.96 0 6 0 C5.67 0.99 5.34 1.98 5 3 C4.34 2.67 3.68 2.34 3 2 C2.67 3.65 2.34 5.3 2 7 C1.34 7 0.68 7 0 7 C0 4.69 0 2.38 0 0 Z " fill="#A3A386" transform="translate(221,143)"/>
<path d="M0 0 C0.99 0 1.98 0 3 0 C3 2.64 3 5.28 3 8 C2.01 7.67 1.02 7.34 0 7 C0 4.69 0 2.38 0 0 Z " fill="#F5FAE8" transform="translate(278,124)"/>
<path d="M0 0 C2.64 0.66 5.28 1.32 8 2 C8 2.66 8 3.32 8 4 C8.66 4.33 9.32 4.66 10 5 C8.68 5.33 7.36 5.66 6 6 C6 5.01 6 4.02 6 3 C4.02 3 2.04 3 0 3 C0 2.01 0 1.02 0 0 Z " fill="#F9FBE9" transform="translate(116,72)"/>
<path d="M0 0 C0.33 0.99 0.66 1.98 1 3 C3.01508358 3.73323796 3.01508358 3.73323796 5 4 C4.34 5.65 3.68 7.3 3 9 C2.34 9 1.68 9 1 9 C0.67 6.03 0.34 3.06 0 0 Z " fill="#BBBFBF" transform="translate(208,38)"/>
<path d="M0 0 C1.98 0 3.96 0 6 0 C5.67 0.99 5.34 1.98 5 3 C5 2.34 5 1.68 5 1 C4.01 1.495 4.01 1.495 3 2 C2.34444881 4.52733235 2.34444881 4.52733235 2 7 C1.34 7 0.68 7 0 7 C0 4.69 0 2.38 0 0 Z " fill="#9CA484" transform="translate(95,194)"/>
<path d="M0 0 C1.98 0 3.96 0 6 0 C5.67 0.99 5.34 1.98 5 3 C5 2.34 5 1.68 5 1 C4.01 1.495 4.01 1.495 3 2 C2.34444881 4.52733235 2.34444881 4.52733235 2 7 C1.34 7 0.68 7 0 7 C0 4.69 0 2.38 0 0 Z " fill="#A2A182" transform="translate(221,109)"/>
<path d="M0 0 C0 0.99 0 1.98 0 3 C-0.99 3.33 -1.98 3.66 -3 4 C-3.33 5.65 -3.66 7.3 -4 9 C-4.33 9 -4.66 9 -5 9 C-5.33 6.69 -5.66 4.38 -6 2 C-2.25 0 -2.25 0 0 0 Z " fill="#F7FAE8" transform="translate(302,106)"/>
<path d="M0 0 C1.98 0.495 1.98 0.495 4 1 C4 2.98 4 4.96 4 7 C2.35 7 0.7 7 -1 7 C-0.01 6.67 0.98 6.34 2 6 C2 5.34 2 4.68 2 4 C1.01 3.67 0.02 3.34 -1 3 C-0.01 3 0.98 3 2 3 C2 2.34 2 1.68 2 1 C1.34 0.67 0.68 0.34 0 0 Z " fill="#8E8F6E" transform="translate(181,92)"/>
<path d="M0 0 C1.98 0 3.96 0 6 0 C5.67 0.99 5.34 1.98 5 3 C5 2.34 5 1.68 5 1 C4.01 1.495 4.01 1.495 3 2 C2.34444881 4.52733235 2.34444881 4.52733235 2 7 C1.34 7 0.68 7 0 7 C0 4.69 0 2.38 0 0 Z " fill="#A3A186" transform="translate(221,92)"/>
<path d="M0 0 C0.66 0 1.32 0 2 0 C3.125 4.75 3.125 4.75 2 7 C1.01 6.67 0.02 6.34 -1 6 C-1.042721 4.33388095 -1.04063832 2.66617115 -1 1 C-0.67 0.67 -0.34 0.34 0 0 Z " fill="#DEE2C1" transform="translate(370,91)"/>
<path d="M0 0 C0.66 0.33 1.32 0.66 2 1 C1.01 2.98 0.02 4.96 -1 7 C0.32 7 1.64 7 3 7 C2.67 7.66 2.34 8.32 2 9 C0.35 8.67 -1.3 8.34 -3 8 C-2.74438677 5.6568787 -2.40729228 3.32156597 -2 1 C-1.34 0.67 -0.68 0.34 0 0 Z " fill="#EEEFCA" transform="translate(355,90)"/>
<path d="M0 0 C1.2065625 0.0309375 1.2065625 0.0309375 2.4375 0.0625 C1.4475 0.7225 0.4575 1.3825 -0.5625 2.0625 C-1.28632467 4.12175139 -1.28632467 4.12175139 -1.5625 6.0625 C-0.2425 6.3925 1.0775 6.7225 2.4375 7.0625 C0.77138095 7.105221 -0.89632885 7.10313832 -2.5625 7.0625 C-3.5625 6.0625 -3.5625 6.0625 -3.6875 3.5625 C-3.51717518 0.15600356 -3.41884482 0.08338646 0 0 Z " fill="#8A8988" transform="translate(266.5625,40.9375)"/>
<path d="M0 0 C0.66 0 1.32 0 2 0 C2 0.66 2 1.32 2 2 C2.66 2.33 3.32 2.66 4 3 C3.34 3 2.68 3 2 3 C2 4.65 2 6.3 2 8 C2.66 8.33 3.32 8.66 4 9 C2.68 8.67 1.36 8.34 0 8 C0 5.36 0 2.72 0 0 Z " fill="#82787B" transform="translate(236,39)"/>
<path d="M0 0 C0.66 0.66 1.32 1.32 2 2 C1.67 2.99 1.34 3.98 1 5 C1.66 5 2.32 5 3 5 C3 6.32 3 7.64 3 9 C2.01 9 1.02 9 0 9 C0 7.02 0 5.04 0 3 C-0.99 2.67 -1.98 2.34 -3 2 C-2.01 2 -1.02 2 0 2 C0 1.34 0 0.68 0 0 Z " fill="#EBEEEF" transform="translate(309,38)"/>
<path d="M0 0 C1.231394 3.69418201 0.64432764 6.2056261 0 10 C-0.99 9.67 -1.98 9.34 -3 9 C-2.79375 8.38125 -2.5875 7.7625 -2.375 7.125 C-2.25125 6.42375 -2.1275 5.7225 -2 5 C-2.66 4.34 -3.32 3.68 -4 3 C-3.01 3 -2.02 3 -1 3 C-0.67 2.01 -0.34 1.02 0 0 Z " fill="#7C7A76" transform="translate(227,4)"/>
<path d="M0 0 C1.32 0.33 2.64 0.66 4 1 C4 2.65 4 4.3 4 6 C2.68 6.33 1.36 6.66 0 7 C0 4.69 0 2.38 0 0 Z " fill="#EFF4E9" transform="translate(100,177)"/>
<path d="M0 0 C0.66 0 1.32 0 2 0 C2.16276042 2.01822917 2.32552083 4.03645833 2.48828125 6.0546875 C2.87393036 8.39519216 2.87393036 8.39519216 6 10 C4.02 10 2.04 10 0 10 C0 6.7 0 3.4 0 0 Z " fill="#F6F7E3" transform="translate(198,124)"/>
<path d="M0 0 C0.66 0.33 1.32 0.66 2 1 C1.01 3.31 0.02 5.62 -1 8 C-3.475 7.01 -3.475 7.01 -6 6 C-6 5.67 -6 5.34 -6 5 C-4.35 5 -2.7 5 -1 5 C-1.33 3.68 -1.66 2.36 -2 1 C-1.34 0.67 -0.68 0.34 0 0 Z " fill="#F0F3E1" transform="translate(298,125)"/>
<path d="M0 0 C1.2065625 0.0309375 1.2065625 0.0309375 2.4375 0.0625 C1.4475 0.7225 0.4575 1.3825 -0.5625 2.0625 C-1.28632467 4.12175139 -1.28632467 4.12175139 -1.5625 6.0625 C-0.5725 6.3925 0.4175 6.7225 1.4375 7.0625 C-0.2125 6.7325 -1.8625 6.4025 -3.5625 6.0625 C-3.605221 4.39638095 -3.60313832 2.72867115 -3.5625 1.0625 C-2.5625 0.0625 -2.5625 0.0625 0 0 Z " fill="#999F79" transform="translate(77.5625,125.9375)"/>
<path d="M0 0 C1.32 0 2.64 0 4 0 C4 1.65 4 3.3 4 5 C2.68 5 1.36 5 0 5 C0 3.35 0 1.7 0 0 Z " fill="#F9FCE2" transform="translate(196,110)"/>
<path d="M0 0 C0.99 0.33 1.98 0.66 3 1 C3.33 2.98 3.66 4.96 4 7 C2.68 7 1.36 7 0 7 C0 4.69 0 2.38 0 0 Z " fill="#FCFDEC" transform="translate(32,100)"/>
<path d="M0 0 C1.32 0 2.64 0 4 0 C4.33 1.98 4.66 3.96 5 6 C3.35 6.33 1.7 6.66 0 7 C0.99 6.67 1.98 6.34 3 6 C3 5.34 3 4.68 3 4 C2.01 3.67 1.02 3.34 0 3 C0.99 3 1.98 3 3 3 C3 2.34 3 1.68 3 1 C2.01 0.67 1.02 0.34 0 0 Z " fill="#7C7673" transform="translate(96,41)"/>
<path d="M0 0 C0.5625 1.9375 0.5625 1.9375 1 4 C0 5 0 5 -2.5625 5.0625 C-3.7690625 5.0315625 -3.7690625 5.0315625 -5 5 C-5 4.01 -5 3.02 -5 2 C-3.35 2 -1.7 2 0 2 C0 1.34 0 0.68 0 0 Z " fill="#D2D7AD" transform="translate(297,179)"/>
<path d="M0 0 C0.66 1.32 1.32 2.64 2 4 C2.66 4 3.32 4 4 4 C4.33 2.68 4.66 1.36 5 0 C5.33 0.66 5.66 1.32 6 2 C5.0625 4.625 5.0625 4.625 4 7 C3.01 6.67 2.02 6.34 1 6 C0.67 4.02 0.34 2.04 0 0 Z " fill="#A0A08A" transform="translate(123,126)"/>
<path d="M0 0 C0.68707555 2.49064888 1 4.37886292 1 7 C-0.32 7 -1.64 7 -3 7 C-3 5.35 -3 3.7 -3 2 C-2.01 2 -1.02 2 0 2 C0 1.34 0 0.68 0 0 Z " fill="#F7F7DA" transform="translate(35,108)"/>
<path d="M0 0 C1.485 0.99 1.485 0.99 3 2 C3.1875 4.625 3.1875 4.625 3 7 C2.01 7 1.02 7 0 7 C0 4.69 0 2.38 0 0 Z " fill="#BBC4AB" transform="translate(207,92)"/>
<path d="M0 0 C1.65 0 3.3 0 5 0 C5 1.32 5 2.64 5 4 C6.65 4 8.3 4 10 4 C10 4.33 10 4.66 10 5 C8.02 5 6.04 5 4 5 C3.67 4.34 3.34 3.68 3 3 C2.01 2.67 1.02 2.34 0 2 C0 1.34 0 0.68 0 0 Z " fill="#FCFCDC" transform="translate(174,95)"/>
<path d="M0 0 C0.66 0 1.32 0 2 0 C2 1.65 2 3.3 2 5 C2.66 5.33 3.32 5.66 4 6 C2.35 6 0.7 6 -1 6 C-1.042721 4.33388095 -1.04063832 2.66617115 -1 1 C-0.67 0.67 -0.34 0.34 0 0 Z " fill="#C8C7C6" transform="translate(286,42)"/>
<path d="M0 0 C0.99 0 1.98 0 3 0 C4.25 7.625 4.25 7.625 2 11 C1.77213542 9.01432292 1.54427083 7.02864583 1.31640625 5.04296875 C1.02829265 2.80603607 1.02829265 2.80603607 0 0 Z " fill="#C7CDD0" transform="translate(217,38)"/>
<path d="M0 0 C1.65 0 3.3 0 5 0 C5 1.65 5 3.3 5 5 C4.34 4.67 3.68 4.34 3 4 C2.67 4.33 2.34 4.66 2 5 C1.34 5 0.68 5 0 5 C0 3.35 0 1.7 0 0 Z " fill="#F0EFE6" transform="translate(174,40)"/>
<path d="M0 0 C-0.33 1.65 -0.66 3.3 -1 5 C-1.33 4.34 -1.66 3.68 -2 3 C-4.02463255 2.34786708 -4.02463255 2.34786708 -6 2 C-6 1.34 -6 0.68 -6 0 C-3 -1 -3 -1 0 0 Z " fill="#F3F3DE" transform="translate(292,178)"/>
<path d="M0 0 C-0.99 0.66 -1.98 1.32 -3 2 C-3.2502157 5.08365871 -3.2502157 5.08365871 -3 8 C-3.66 8 -4.32 8 -5 8 C-5.144375 7.05125 -5.28875 6.1025 -5.4375 5.125 C-5.82935399 2.1065506 -5.82935399 2.1065506 -7 0 C-4.3333581 -1.33332095 -2.83319697 -0.67102033 0 0 Z " fill="#F5F4DB" transform="translate(197,159)"/>
<path d="M0 0 C1.65 0 3.3 0 5 0 C4.34 0.66 3.68 1.32 3 2 C2.35232207 4.57061311 2.35232207 4.57061311 2 7 C1.34 7 0.68 7 0 7 C0 4.69 0 2.38 0 0 Z " fill="#A2A480" transform="translate(81,126)"/>
<path d="M0 0 C1.65 0 3.3 0 5 0 C4.34 0.66 3.68 1.32 3 2 C2.35232207 4.57061311 2.35232207 4.57061311 2 7 C1.34 7 0.68 7 0 7 C0 4.69 0 2.38 0 0 Z " fill="#9FA37C" transform="translate(137,126)"/>
<path d="M0 0 C0.66 0 1.32 0 2 0 C2 0.99 2 1.98 2 3 C3.65 3 5.3 3 7 3 C7 3.66 7 4.32 7 5 C5.35 5.33 3.7 5.66 2 6 C1.34 4.02 0.68 2.04 0 0 Z " fill="#E9EAD4" transform="translate(288,107)"/>
<path d="M0 0 C0.66 0.33 1.32 0.66 2 1 C1.67 3.97 1.34 6.94 1 10 C-1.39223697 7.60776303 -1.6758631 6.32240324 -2 3 C-1.34 2.01 -0.68 1.02 0 0 Z " fill="#F0EFD3" transform="translate(276,90)"/>
<path d="M0 0 C1.98 0.66 3.96 1.32 6 2 C6 2.99 6 3.98 6 5 C5.34 5 4.68 5 4 5 C4 4.34 4 3.68 4 3 C2.68 3 1.36 3 0 3 C0 2.01 0 1.02 0 0 Z " fill="#F8F9E9" transform="translate(32,200)"/>
<path d="M0 0 C0.99 0.33 1.98 0.66 3 1 C3 2.65 3 4.3 3 6 C2.01 6 1.02 6 0 6 C0 4.02 0 2.04 0 0 Z " fill="#ECECD6" transform="translate(283,160)"/>
<path d="M0 0 C1.32 0.33 2.64 0.66 4 1 C3.67 2.32 3.34 3.64 3 5 C2.01 4.67 1.02 4.34 0 4 C0 2.68 0 1.36 0 0 Z " fill="#F0F4DA" transform="translate(201,161)"/>
<path d="M0 0 C0.33 0.99 0.66 1.98 1 3 C0.01 3.495 0.01 3.495 -1 4 C-2.13350534 6.01669827 -2.13350534 6.01669827 -3 8 C-3.33 6.02 -3.66 4.04 -4 2 C-2.68 1.34 -1.36 0.68 0 0 Z " fill="#EDEED0" transform="translate(97,140)"/>
<path d="M0 0 C1.32 0.33 2.64 0.66 4 1 C3.67 2.32 3.34 3.64 3 5 C2.01 4.67 1.02 4.34 0 4 C0 2.68 0 1.36 0 0 Z " fill="#EFEFD5" transform="translate(194,127)"/>
<path d="M0 0 C1.65 0.33 3.3 0.66 5 1 C5 1.66 5 2.32 5 3 C2.69 3.33 0.38 3.66 -2 4 C-2.33 3.34 -2.66 2.68 -3 2 C-2.01 2 -1.02 2 0 2 C0 1.34 0 0.68 0 0 Z " fill="#FCFCE8" transform="translate(277,98)"/>
<path d="M0 0 C1.32 0.33 2.64 0.66 4 1 C3.67 2.32 3.34 3.64 3 5 C2.01 4.67 1.02 4.34 0 4 C0 2.68 0 1.36 0 0 Z " fill="#F2F4DE" transform="translate(285,93)"/>
<path d="M0 0 C-1.125 1.5625 -1.125 1.5625 -3 3 C-6.1875 2.6875 -6.1875 2.6875 -9 2 C-4 -1.33333333 -4 -1.33333333 0 0 Z " fill="#FCFDE6" transform="translate(300,73)"/>
<path d="M0 0 C0.99 0 1.98 0 3 0 C2.67 1.65 2.34 3.3 2 5 C1.01 5 0.02 5 -1 5 C-0.67 3.35 -0.34 1.7 0 0 Z " fill="#F6F1F4" transform="translate(216,8)"/>
</svg>
